<svg width="25" height="17" viewBox="0 0 25 17" fill="none" xmlns="http://www.w3.org/2000/svg">
<path d="M23.54 0.921875H1.46C0.929807 0.921875 0.5 1.39944 0.5 1.98854V15.8552C0.5 16.4443 0.929807 16.9219 1.46 16.9219H23.54C24.0702 16.9219 24.5 16.4443 24.5 15.8552V1.98854C24.5 1.39944 24.0702 0.921875 23.54 0.921875Z" fill="#13A8E0"/>
<path d="M2.70221 6.6567L2.24222 5.36889L1.78487 6.6567H2.70221ZM12.8356 6.1439C12.7433 6.2083 12.6341 6.21045 12.5032 6.21045H11.6868V5.49293H12.5143C12.6314 5.49293 12.7536 5.49897 12.833 5.5512C12.9202 5.59826 12.9741 5.69842 12.9741 5.83678C12.9741 5.97796 12.9228 6.09157 12.8356 6.1439ZM18.6599 6.6567L18.1948 5.36889L17.7323 6.6567H18.6599ZM7.8031 8.05062H7.11414L7.1116 5.5206L6.13709 8.05062H5.54702L4.56997 5.51836V8.05062H3.20307L2.94484 7.33008H1.54555L1.28468 8.05062H0.554762L1.75824 4.82023H2.75674L3.89975 7.87874V4.82023H4.99663L5.87615 7.01166L6.68409 4.82023H7.80302L7.8031 8.05062ZM10.549 8.05062H8.30396V4.82023H10.549V5.49293H8.97605V6.07521H10.5113V6.73738H8.97605V7.3825H10.549V8.05062ZM13.7145 5.69024C13.7145 6.20528 13.4153 6.47138 13.2409 6.55128C13.388 6.61559 13.5136 6.7292 13.5734 6.82332C13.6683 6.98399 13.6846 7.12751 13.6846 7.41602V8.05062H13.0068L13.0042 7.64324C13.0042 7.44886 13.0204 7.16931 12.8981 7.0139C12.7999 6.90029 12.6503 6.87564 12.4083 6.87564H11.6869V8.05062H11.0149V4.82023H12.5606C12.9041 4.82023 13.1571 4.83066 13.3744 4.97496C13.587 5.11926 13.7145 5.32992 13.7145 5.69024ZM14.79 8.05062H14.1042V4.82023H14.79V8.05062ZM22.7454 8.05062H21.7931L20.5192 5.62603V8.05062H19.1505L18.889 7.33008H17.4929L17.2392 8.05062H16.4528C16.1261 8.05062 15.7125 7.96761 15.4783 7.69332C15.2421 7.41904 15.1192 7.04752 15.1192 6.46008C15.1192 5.98098 15.1926 5.54301 15.4815 5.19692C15.6988 4.9391 16.039 4.82023 16.5021 4.82023H17.1528V5.51242H16.5158C16.2705 5.51242 16.132 5.55431 15.9986 5.70378C15.8841 5.8398 15.8054 6.09693 15.8054 6.43552C15.8054 6.78162 15.8653 7.03115 15.9902 7.19416C16.0937 7.322 16.2817 7.36077 16.4586 7.36077H16.7604L17.7076 4.82033H18.7146L19.8525 7.87582V4.82033H20.8757L22.0571 7.07012V4.82033H22.7454V8.05062ZM0.546875 8.68512H1.69523L1.95414 7.96761H2.53379L2.79202 8.68512H5.05133V8.13656L5.253 8.68746H6.42586L6.62752 8.12838V8.68512H12.2423L12.2397 7.50732H12.3483C12.4244 7.51034 12.4466 7.51843 12.4466 7.66273V8.68512H15.3506V8.41094C15.5849 8.55514 15.9492 8.68512 16.4286 8.68512H17.6503L17.9118 7.96761H18.4914L18.7471 8.68512H21.1014V8.00356L21.4579 8.68512H23.3445V4.17969H21.4774V4.71178L21.216 4.17969H19.3001V4.71178L19.06 4.17969H16.4722C16.039 4.17969 15.6582 4.24916 15.3506 4.44276V4.17969H13.5648V4.44276C13.3691 4.24322 13.1024 4.17969 12.8058 4.17969H6.28143L5.84367 5.34336L5.39411 4.17969H3.3391V4.71178L3.11335 4.17969H1.36075L0.546875 6.32182V8.68512Z" fill="white"/>
<path d="M24.4526 11.0648H23.2278C23.1055 11.0648 23.0242 11.07 22.9558 11.1231C22.8849 11.1755 22.8576 11.2531 22.8576 11.3556C22.8576 11.4775 22.9175 11.5604 23.0046 11.5963C23.0754 11.6246 23.1516 11.6329 23.2635 11.6329L23.6278 11.6441C23.9953 11.6545 24.2407 11.7271 24.3903 11.9042C24.4175 11.9288 24.4339 11.9565 24.4526 11.9842V11.0648ZM24.4526 13.195C24.2894 13.4693 23.9713 13.6083 23.5406 13.6083H22.2427V12.9155H23.5353C23.6636 12.9155 23.7533 12.8961 23.8073 12.8355C23.8541 12.7855 23.8868 12.7129 23.8868 12.6247C23.8868 12.5306 23.8541 12.4559 23.8047 12.411C23.7559 12.3617 23.6849 12.3393 23.5679 12.3393C22.9369 12.3147 22.1496 12.3617 22.1496 11.3392C22.1496 10.8706 22.4086 10.3773 23.1139 10.3773H24.4526V9.73438H23.2088C22.8334 9.73438 22.5608 9.83766 22.3677 9.99823V9.73438H20.528C20.2338 9.73438 19.8885 9.81817 19.7251 9.99823V9.73438H16.4399V9.99823C16.1785 9.78153 15.7373 9.73438 15.5337 9.73438H13.3667V9.99823C13.1599 9.76809 12.6999 9.73438 12.4195 9.73438H9.99435L9.43938 10.4244L8.9196 9.73438H5.29688V14.2429H8.85142L9.42326 13.542L9.96195 14.2429L12.153 14.2452V13.1846H12.3684C12.6591 13.1897 13.002 13.1763 13.3045 13.0261V14.2428H15.1117V13.0678H15.1989C15.3101 13.0678 15.3211 13.073 15.3211 13.2008V14.2427H20.8111C21.1596 14.2427 21.5239 14.1402 21.7257 13.9542V14.2427H23.4671C23.8295 14.2427 24.1833 14.1844 24.4526 14.0349V13.195ZM21.7718 11.9042C21.9027 12.0598 21.9728 12.2562 21.9728 12.5888C21.9728 13.2839 21.5948 13.6083 20.9171 13.6083H19.6081V12.9155H20.9118C21.0393 12.9155 21.1297 12.8961 21.1863 12.8355C21.2325 12.7855 21.2657 12.7129 21.2657 12.6247C21.2657 12.5306 21.2298 12.4559 21.1837 12.411C21.1323 12.3617 21.0614 12.3393 20.9444 12.3393C20.3159 12.3147 19.5288 12.3617 19.5288 11.3392C19.5288 10.8706 19.7851 10.3773 20.4896 10.3773H21.8369V11.065H20.6041C20.4819 11.065 20.4025 11.0702 20.3349 11.1233C20.2613 11.1756 20.234 11.2533 20.234 11.3558C20.234 11.4777 20.2965 11.5606 20.381 11.5965C20.4519 11.6248 20.5281 11.6331 20.6425 11.6331L21.0043 11.6443C21.3692 11.6545 21.6196 11.727 21.7718 11.9042ZM15.7075 11.7046C15.6176 11.7659 15.5065 11.7712 15.3757 11.7712H14.5593V11.0455H15.3868C15.5065 11.0455 15.6262 11.0484 15.7075 11.1038C15.7946 11.1562 15.8467 11.2562 15.8467 11.3945C15.8467 11.5327 15.7946 11.6441 15.7075 11.7046ZM16.1134 12.1067C16.263 12.1702 16.3853 12.2839 16.4426 12.378C16.5375 12.5358 16.5513 12.683 16.554 12.9678V13.6083H15.8793V13.2041C15.8793 13.0097 15.8955 12.7219 15.7706 12.5716C15.6724 12.4559 15.5227 12.4282 15.2776 12.4282H14.5593V13.6083H13.884V10.3772H15.4356C15.7759 10.3772 16.0237 10.3944 16.2443 10.5296C16.4564 10.6769 16.5898 10.8786 16.5898 11.2472C16.5897 11.7629 16.2903 12.0261 16.1134 12.1067ZM16.9624 10.3772H19.2054V11.0454H17.6317V11.6328H19.167V12.2921H17.6317V12.9349L19.2054 12.9379V13.6083H16.9624V10.3772ZM12.4281 11.8683H11.5596V11.0455H12.4359C12.6785 11.0455 12.847 11.1591 12.847 11.4416C12.847 11.7211 12.6863 11.8683 12.4281 11.8683ZM10.8902 13.3145L9.8584 11.9983L10.8902 10.7239V13.3145ZM8.22555 12.9349H6.5732V12.2921H8.04865V11.6328H6.5732V11.0454H8.25812L8.99321 11.987L8.22555 12.9349ZM13.5685 11.4416C13.5685 12.3392 12.9856 12.5245 12.3982 12.5245H11.5596V13.6083H10.2533L9.42581 12.5387L8.56579 13.6083H5.90374V10.3772H8.60675L9.43361 11.4363L10.2885 10.3772H12.4359C12.9692 10.3772 13.5685 10.5468 13.5685 11.4416Z" fill="white"/>
</svg>
