<svg width="18" height="18" viewBox="0 0 18 18" fill="none" xmlns="http://www.w3.org/2000/svg">
<rect x="0.311523" y="0.109039" width="17.0007" height="17.0007" rx="8.50033" fill="#01AAC1"/>
<path d="M9.6882 13.3382C9.46156 13.3577 9.26588 13.3905 9.0702 13.3857C8.2814 13.3781 7.49119 13.3857 6.70473 13.3334C6.32933 13.3078 5.95065 13.197 5.60012 13.0563C4.89625 12.775 4.62174 12.1704 4.60531 11.4518C4.57106 9.95274 5.20924 8.82156 6.49028 8.06348C6.60055 7.99789 6.67798 8.00834 6.78403 8.07869C7.73191 8.70796 8.68214 8.69941 9.63236 8.07583C9.69299 8.03471 9.76701 8.01903 9.83883 8.03211C10.1673 8.1438 10.7614 8.64998 10.965 8.98268C9.78862 9.10958 9.00592 9.72222 8.72812 10.9009C8.5545 11.6405 8.74971 12.5834 9.6882 13.3382Z" fill="white"/>
<path d="M10.3997 6.02369C10.4013 6.61185 10.1731 7.17676 9.76506 7.59522C9.35701 8.01369 8.80215 8.25177 8.22149 8.25753C7.93202 8.26061 7.64479 8.20569 7.37634 8.09594C7.10789 7.9862 6.86351 7.82378 6.65724 7.61804C6.45097 7.4123 6.28689 7.16729 6.17443 6.8971C6.06198 6.62691 6.00336 6.33687 6.00195 6.04366C6.00331 5.45569 6.23426 4.89214 6.64438 4.47603C7.05451 4.05991 7.6105 3.82503 8.19099 3.82265C8.77155 3.8196 9.3297 4.04937 9.74355 4.46177C10.1574 4.87417 10.3933 5.4357 10.3997 6.02369Z" fill="white"/>
<path d="M11.0457 9.35339C10.7817 9.34924 10.5195 9.39821 10.2743 9.49746C10.0291 9.59672 9.80581 9.74428 9.61734 9.9316C9.42886 10.1189 9.27897 10.3423 9.17636 10.5887C9.07374 10.8351 9.02043 11.0997 9.01953 11.3672C9.01854 11.9033 9.22764 12.418 9.60093 12.7981C9.97423 13.1783 10.4812 13.3929 11.0106 13.3947C11.5396 13.3992 12.0487 13.1907 12.4261 12.8152C12.8034 12.4396 13.0182 11.9277 13.0232 11.3919C13.0258 11.1264 12.9767 10.8631 12.8787 10.6168C12.7807 10.3706 12.6357 10.1464 12.4521 9.95706C12.2684 9.76769 12.0496 9.6169 11.8083 9.51331C11.567 9.40972 11.3078 9.35538 11.0457 9.35339ZM11.5333 12.4057L11.0368 11.8054L10.5235 12.4855L10.0162 11.8981L10.5479 11.3353L9.94301 10.86C10.1532 10.65 10.3071 10.4965 10.4817 10.323L11.0448 10.8691L11.5319 10.2802L12.0809 10.8372L11.4854 11.341L12.0889 11.8776L11.5333 12.4057Z" fill="white"/>
</svg>
