<svg width="31" height="31" viewBox="0 0 31 31" fill="none" xmlns="http://www.w3.org/2000/svg">
<path d="M15.2949 30.4883C23.5792 30.4883 30.2949 23.7726 30.2949 15.4883C30.2949 7.20401 23.5792 0.488281 15.2949 0.488281C7.01065 0.488281 0.294922 7.20401 0.294922 15.4883C0.294922 23.7726 7.01065 30.4883 15.2949 30.4883Z" fill="#01AAC1"/>
<path d="M8.64116 22.1413C8.68623 22.1863 8.73977 22.2221 8.79871 22.2466C8.85763 22.271 8.92079 22.2836 8.98459 22.2836C9.04837 22.2836 9.11154 22.271 9.17047 22.2466C9.2294 22.2221 9.28294 22.1863 9.32801 22.1413L15.2936 16.1755L21.2618 22.1413C21.353 22.2323 21.4765 22.2834 21.6053 22.2834C21.7342 22.2834 21.8577 22.2323 21.9487 22.1413C22.0399 22.0501 22.091 21.9266 22.091 21.7978C22.091 21.6689 22.0399 21.5454 21.9487 21.4544L15.9805 15.4886L21.9463 9.52052C22.0373 9.42943 22.0885 9.30589 22.0885 9.17708C22.0885 9.04827 22.0373 8.92473 21.9463 8.83366C21.8551 8.74257 21.7316 8.69141 21.6029 8.69141C21.4741 8.69141 21.3506 8.74257 21.2594 8.83366L15.2936 14.8017L9.32559 8.83607C9.23272 8.75656 9.11328 8.71501 8.99112 8.71973C8.86895 8.72444 8.75306 8.77509 8.6666 8.86153C8.58016 8.94798 8.52951 9.06387 8.5248 9.18604C8.52008 9.30821 8.56164 9.42765 8.64116 9.52052L14.6069 15.4886L8.64116 21.4568C8.55075 21.5477 8.5 21.6708 8.5 21.799C8.5 21.9273 8.55075 22.0502 8.64116 22.1413Z" fill="white"/>
</svg>
