<svg width="391" height="513" viewBox="0 0 391 513" fill="none" xmlns="http://www.w3.org/2000/svg">
<path d="M264.453 115.724C264.453 118.481 266.696 120.724 269.453 120.724H383.767C381.023 115.658 377.493 111.005 373.252 106.992L276.829 15.7703C273.087 12.2303 268.919 9.27731 264.454 6.94531V115.724H264.453Z" fill="black"/>
<path d="M269.453 150.723C250.154 150.723 234.453 135.022 234.453 115.723V0.722656H55.4531C25.1261 0.722656 0.453125 25.3957 0.453125 55.7227V457.723C0.453125 488.05 25.1261 512.723 55.4531 512.723H335.453C365.78 512.723 390.453 488.05 390.453 457.723V150.723H269.453ZM82.4531 360.723H155.173C163.457 360.723 170.173 367.439 170.173 375.723C170.173 384.007 163.457 390.723 155.173 390.723H82.4531C74.1691 390.723 67.4531 384.007 67.4531 375.723C67.4531 367.439 74.1691 360.723 82.4531 360.723ZM67.4531 295.723C67.4531 287.439 74.1691 280.723 82.4531 280.723H302.453C310.737 280.723 317.453 287.439 317.453 295.723C317.453 304.007 310.737 310.723 302.453 310.723H82.4531C74.1691 310.723 67.4531 304.007 67.4531 295.723ZM302.453 200.723C310.737 200.723 317.453 207.439 317.453 215.723C317.453 224.007 310.737 230.723 302.453 230.723H82.4531C74.1691 230.723 67.4531 224.007 67.4531 215.723C67.4531 207.439 74.1691 200.723 82.4531 200.723H302.453Z" fill="black"/>
</svg>
