<svg width="461" height="513" viewBox="0 0 461 513" fill="none" xmlns="http://www.w3.org/2000/svg">
<path d="M42.9766 472.688C50.3236 495.678 71.6356 512.353 96.7276 512.353H363.871C388.962 512.353 410.274 495.678 417.621 472.688H42.9766Z" fill="black"/>
<path d="M403.818 82.6157L338.106 16.9037C335.396 14.1927 332.465 11.8027 329.344 9.72266V91.0177C329.344 92.8677 330.854 94.3687 332.705 94.3687H412.85C410.41 90.1167 407.379 86.1767 403.818 82.6157Z" fill="black"/>
<path d="M420.363 124.375H332.707C314.304 124.375 299.341 109.412 299.341 91.0186V0.371562C298.951 0.351562 298.551 0.351562 298.161 0.351562H96.7244C65.5784 0.351562 40.2344 25.6966 40.2344 56.8516V210.95H420.364L420.363 124.375Z" fill="black"/>
<path d="M230.612 306.008C221.463 306.008 216.891 311.149 216.891 321.425V362.279C216.891 372.557 221.463 377.696 230.612 377.696C239.862 377.696 244.487 372.558 244.487 362.279V321.425C244.486 311.149 239.861 306.008 230.612 306.008Z" fill="black"/>
<path d="M422.315 240.957H38.28C17.379 240.957 0.375 257.961 0.375 278.862V404.774C0.375 425.675 17.379 442.679 38.28 442.679H422.314C443.215 442.679 460.22 425.675 460.22 404.774V278.862C460.22 257.961 443.216 240.957 422.315 240.957ZM178.814 361.353C178.814 373.893 175.369 383.09 168.485 388.948C161.598 394.806 152.399 397.736 140.89 397.736H113.603C110.519 397.736 108 397.018 106.049 395.578C104.096 394.14 103.119 392.444 103.119 390.49V292.287C103.119 290.336 104.095 288.64 106.049 287.2C108 285.762 110.52 285.042 113.603 285.042H140.89C152.399 285.042 161.599 287.972 168.485 293.83C175.369 299.688 178.814 308.888 178.814 321.425V361.353ZM268.538 362.278C268.538 374.818 265.093 384.015 258.209 389.873C251.323 395.731 242.123 398.661 230.614 398.661C219.206 398.661 210.057 395.731 203.173 389.873C196.286 384.015 192.844 374.818 192.844 362.278V321.424C192.844 308.886 196.286 299.687 203.173 293.829C210.057 287.971 219.206 285.041 230.614 285.041C242.123 285.041 251.323 287.971 258.209 293.829C265.093 299.687 268.538 308.887 268.538 321.424V362.278ZM320.798 377.695C323.675 377.695 326.064 377.233 327.966 376.308C329.866 375.383 331.228 373.972 332.051 372.068C332.872 370.168 333.412 368.599 333.67 367.366C333.925 366.133 334.156 364.436 334.363 362.279C334.773 357.449 338.731 355.033 346.234 355.033C350.652 355.033 353.788 355.83 355.638 357.422C357.488 359.016 358.412 362.023 358.412 366.441C358.412 376.411 354.789 384.273 347.543 390.028C340.298 395.785 331.021 398.662 319.717 398.662C308.718 398.662 299.803 395.732 292.969 389.874C286.133 384.016 282.717 374.819 282.717 362.279V321.425C282.717 308.887 286.133 299.688 292.969 293.83C299.803 287.972 308.718 285.042 319.717 285.042C331.021 285.042 340.298 287.767 347.543 293.213C354.789 298.662 358.412 306.163 358.412 315.721C358.412 320.141 357.487 323.147 355.638 324.74C353.788 326.334 350.705 327.129 346.388 327.129C338.68 327.129 334.672 324.716 334.363 319.883C334.055 310.633 329.481 306.008 320.642 306.008C311.392 306.008 306.767 311.149 306.767 321.425V362.279C306.769 372.556 311.444 377.695 320.798 377.695Z" fill="black"/>
<path d="M140.885 306.008H127.164V376.77H140.885C150.135 376.77 154.76 371.632 154.76 361.353V321.425C154.76 311.149 150.135 306.008 140.885 306.008Z" fill="black"/>
</svg>
