<svg width="18" height="18" viewBox="0 0 18 18" fill="none" xmlns="http://www.w3.org/2000/svg">
    <path d="M10.2064 11.4709C10.0432 11.634 9.84145 11.7587 9.62282 11.8316L7.51115 12.5354C7.35875 12.5863 7.19981 12.6121 7.03902 12.6121C6.64015 12.6121 6.26517 12.4568 5.98317 12.1747C5.58065 11.7721 5.44248 11.1867 5.62249 10.6467L6.32639 8.53514C6.39922 8.31644 6.52398 8.11457 6.68707 7.95148L11.248 3.39062H2.32447C1.31819 3.39062 0.499512 4.2093 0.499512 5.21558V15.8335C0.499512 16.8398 1.31819 17.6584 2.32447 17.6584H12.9424C13.9487 17.6584 14.7673 16.8398 14.7673 15.8335V6.91L10.2064 11.4709Z" fill="#232323"/>
    <path d="M7.38825 8.65505C7.3336 8.7097 7.29246 8.7763 7.26804 8.84959L6.56414 10.9612C6.50451 11.14 6.55106 11.3372 6.68435 11.4705C6.81767 11.6038 7.01483 11.6504 7.19368 11.5907L9.30532 10.8869C9.37864 10.8624 9.44521 10.8213 9.49986 10.7667L15.7174 4.5491L13.6058 2.4375L7.38825 8.65505Z" fill="#232323"/>
    <path d="M16.3063 0.914834C15.9824 0.590889 15.4572 0.590889 15.1332 0.914834L14.312 1.73603L16.4236 3.84767L17.2448 3.02647C17.5688 2.70253 17.5688 2.1773 17.2448 1.85336L16.3063 0.914834Z" fill="#232323"/>
</svg>
