<svg width="51" height="21" viewBox="0 0 51 21" fill="none" xmlns="http://www.w3.org/2000/svg">
<path d="M23.8049 10.6725V16.5692H21.9336V2.00781H26.8946C28.1519 2.00781 29.224 2.42696 30.1012 3.26515C30.9979 4.10334 31.4462 5.12671 31.4462 6.33526C31.4462 7.57308 30.9979 8.59645 30.1012 9.42488C29.2337 10.2533 28.1617 10.6627 26.8946 10.6627H23.8049V10.6725ZM23.8049 3.80117V8.8791H26.9336C27.6743 8.8791 28.2982 8.62572 28.7854 8.12862C29.2825 7.63152 29.5359 7.02729 29.5359 6.34501C29.5359 5.67249 29.2825 5.07792 28.7854 4.58092C28.2981 4.06431 27.6841 3.81093 26.9336 3.81093H23.8049V3.80117Z" fill="#383E41"/>
<path d="M36.3431 6.27344C37.7271 6.27344 38.8187 6.6438 39.6179 7.38452C40.4172 8.12524 40.8167 9.13885 40.8167 10.4255V16.5658H39.0331V15.1818H38.9551C38.1851 16.3222 37.152 16.8875 35.8655 16.8875C34.7642 16.8875 33.8479 16.5658 33.1072 15.9128C32.3665 15.2598 31.9961 14.4507 31.9961 13.4762C31.9961 12.443 32.386 11.6244 33.1657 11.02C33.9455 10.406 34.9884 10.1039 36.2846 10.1039C37.3957 10.1039 38.312 10.3086 39.0234 10.7179V10.2891C39.0234 9.63605 38.7701 9.09027 38.2534 8.6322C37.7368 8.17412 37.1326 7.94992 36.4405 7.94992C35.3977 7.94992 34.5692 8.38848 33.9649 9.27545L32.3177 8.24232C33.2242 6.92645 34.5692 6.27344 36.3431 6.27344ZM33.926 13.5053C33.926 13.9927 34.1307 14.4021 34.5497 14.7236C34.9591 15.0453 35.4464 15.211 36.002 15.211C36.7915 15.211 37.4932 14.9186 38.1073 14.3338C38.7214 13.7489 39.0332 13.0667 39.0332 12.2773C38.4484 11.8192 37.6394 11.5852 36.5966 11.5852C35.8363 11.5852 35.2028 11.7704 34.696 12.131C34.1793 12.5111 33.926 12.9693 33.926 13.5053Z" fill="#383E41"/>
<path d="M50.9884 6.60156L44.7506 20.9485H42.8207L45.1404 15.929L41.0273 6.60156H43.0643L46.0273 13.7555H46.0664L48.9513 6.60156H50.9884Z" fill="#383E41"/>
<path d="M16.2073 7.72656H8.36328V10.9429L12.8808 10.9439C12.6976 12.0141 12.1079 12.9263 11.2044 13.5346V13.5352C11.2047 13.535 11.2051 13.5348 11.2054 13.5346L11.1241 15.4569L13.8945 15.6203C13.8941 15.6206 13.8937 15.621 13.8934 15.6213C15.4636 14.1681 16.3633 12.02 16.3633 9.48199C16.3632 8.87179 16.3087 8.28798 16.2073 7.72656Z" fill="#0085F7"/>
<path d="M11.204 13.5349C11.2037 13.5351 11.2033 13.5353 11.203 13.5355C10.4546 14.04 9.49098 14.3351 8.36386 14.3351C6.18549 14.3351 4.33756 12.8673 3.67578 10.8887H3.67549C3.67558 10.889 3.67568 10.8894 3.67578 10.8897L1.36291 10.5234L0.902344 13.0414C2.27677 15.7681 5.10108 17.6391 8.36396 17.6391C10.6187 17.6391 12.513 16.8978 13.8921 15.6216C13.8925 15.6213 13.8929 15.621 13.8932 15.6206L11.204 13.5349Z" fill="#00A94B"/>
<path d="M3.41229 9.29638C3.41229 8.74084 3.50488 8.20381 3.67353 7.69895L2.95132 5.54688H0.899594C0.331406 6.67458 0.0117188 7.94745 0.0117188 9.29638C0.0117188 10.6453 0.332401 11.9182 0.899594 13.0459L0.899992 13.0456L3.67353 10.8938C3.67343 10.8935 3.67333 10.8932 3.67323 10.8928C3.50478 10.3883 3.41229 9.85162 3.41229 9.29638Z" fill="#FFBB00"/>
<path d="M8.36436 0.945312C5.10218 0.945312 2.27667 2.81663 0.902344 5.54376L3.67618 7.69583C4.33796 5.71729 6.18589 4.24949 8.36426 4.24949C9.59522 4.24949 10.6976 4.67351 11.568 5.50194L13.9511 3.12088C12.5038 1.77275 10.6168 0.945312 8.36436 0.945312Z" fill="#FF4031"/>
</svg>
