<svg width="44" height="45" viewBox="0 0 44 45" fill="none" xmlns="http://www.w3.org/2000/svg">
<circle cx="22" cy="22.0625" r="22" fill="#767676"/>
<path d="M28.1236 28.625V15.5C28.1236 15.2594 27.9267 15.0625 27.6861 15.0625H23.7266C23.4859 15.0625 23.2891 15.2594 23.2891 15.5V28.625C23.2891 28.8656 23.4859 29.0625 23.7266 29.0625H27.6861C27.9267 29.0625 28.1236 28.8656 28.1236 28.625Z" fill="white"/>
<path d="M20.7095 28.625V15.5C20.7095 15.2594 20.5126 15.0625 20.272 15.0625H16.3125C16.0719 15.0625 15.875 15.2594 15.875 15.5V28.625C15.875 28.8656 16.0719 29.0625 16.3125 29.0625H20.272C20.5345 29.0625 20.7095 28.8656 20.7095 28.625Z" fill="white"/>
</svg>
