<svg width="13" height="17" viewBox="0 0 13 17" fill="none" xmlns="http://www.w3.org/2000/svg">
<path d="M2.33678 16.7234H11.5611C12.3241 16.7234 12.9448 16.1027 12.9448 15.3397V5.59265H9.71627C8.95329 5.59265 8.33262 4.97197 8.33262 4.209V0.980469H2.33678C1.5738 0.980469 0.953125 1.60115 0.953125 2.36412V15.3397C0.953125 16.1027 1.5738 16.7234 2.33678 16.7234ZM4.18165 7.46827H9.71627C9.9712 7.46827 10.1775 7.67456 10.1775 7.92949C10.1775 8.18442 9.9712 8.39071 9.71627 8.39071H4.18165C3.92672 8.39071 3.72043 8.18442 3.72043 7.92949C3.72043 7.67456 3.92672 7.46827 4.18165 7.46827ZM4.18165 9.31315H9.71627C9.9712 9.31315 10.1775 9.51943 10.1775 9.77436C10.1775 10.0293 9.9712 10.2356 9.71627 10.2356H4.18165C3.92672 10.2356 3.72043 10.0293 3.72043 9.77436C3.72043 9.51943 3.92672 9.31315 4.18165 9.31315ZM4.18165 11.158H9.71627C9.9712 11.158 10.1775 11.3643 10.1775 11.6192C10.1775 11.8742 9.9712 12.0805 9.71627 12.0805H4.18165C3.92672 12.0805 3.72043 11.8742 3.72043 11.6192C3.72043 11.3643 3.92672 11.158 4.18165 11.158ZM4.18165 13.0029H7.8714C8.12633 13.0029 8.33262 13.2092 8.33262 13.4641C8.33262 13.719 8.12633 13.9253 7.8714 13.9253H4.18165C3.92672 13.9253 3.72043 13.719 3.72043 13.4641C3.72043 13.2092 3.92672 13.0029 4.18165 13.0029Z" fill="white"/>
</svg>
