<svg width="8" height="8" viewBox="0 0 8 8" fill="none" xmlns="http://www.w3.org/2000/svg">
<path fill-rule="evenodd" clip-rule="evenodd" d="M6.15034 7.15782L1.15179 2.15927C0.876488 1.88402 0.876488 1.43495 1.15179 1.15965C1.42708 0.884356 1.87621 0.8843 2.15145 1.1596L7.15001 6.15816C7.42531 6.4334 7.42531 6.88247 7.15001 7.15777C6.87471 7.43307 6.42559 7.43312 6.15034 7.15782Z" fill="white"/>
<path fill-rule="evenodd" clip-rule="evenodd" d="M1.15179 6.15816L6.15034 1.1596C6.42559 0.8843 6.87466 0.8843 7.14996 1.1596C7.42525 1.4349 7.42531 1.88402 7.15001 2.15927L2.15145 7.15782C1.87621 7.43312 1.42714 7.43312 1.15184 7.15782C0.876544 6.88253 0.876488 6.4334 1.15179 6.15816Z" fill="white"/>
</svg>
