<svg width="12" height="15" viewBox="0 0 12 15" fill="none" xmlns="http://www.w3.org/2000/svg">
<path d="M11.2406 5.0932H10.9153V3.47369C10.9153 3.46352 10.9137 3.45342 10.9124 3.4431C10.9119 3.37886 10.892 3.31564 10.8493 3.26568L8.23684 0.187483C8.23607 0.186616 8.23525 0.186361 8.23473 0.185571C8.21919 0.167548 8.20103 0.152636 8.18182 0.139788C8.17612 0.135786 8.17041 0.132497 8.16443 0.129107C8.14782 0.119802 8.13017 0.111977 8.11201 0.106343C8.10709 0.105017 8.10269 0.102927 8.09777 0.10155C8.078 0.096758 8.05752 0.09375 8.03681 0.09375H1.61617C1.32298 0.09375 1.08481 0.339719 1.08481 0.641871V5.09304H0.759513C0.340079 5.09304 0 5.44371 0 5.8764V9.95022C0 10.3827 0.340079 10.7337 0.759513 10.7337H1.08481V13.5225C1.08481 13.8247 1.32298 14.0706 1.61617 14.0706H10.3839C10.6768 14.0706 10.9153 13.8247 10.9153 13.5225V10.7338H11.2406C11.6599 10.7338 12 10.3829 12 9.95037V5.87655C12 5.44373 11.6599 5.0932 11.2406 5.0932ZM1.61617 0.641871H7.77109V3.4461C7.77109 3.59753 7.89016 3.72017 8.03678 3.72017H10.3839V5.09317H1.61617V0.641871ZM5.61629 8.07722C4.95694 7.84038 4.52735 7.46407 4.52735 6.8692C4.52735 6.17063 5.09232 5.63622 6.02826 5.63622C6.47574 5.63622 6.80542 5.73337 7.04071 5.84288L6.84078 6.58979C6.68188 6.51058 6.39935 6.39523 6.01066 6.39523C5.62224 6.39523 5.43388 6.57747 5.43388 6.78997C5.43388 7.05118 5.65746 7.16646 6.16984 7.3669C6.87024 7.63402 7.19992 8.01028 7.19992 8.58728C7.19992 9.27324 6.68783 9.85641 5.59869 9.85641C5.1455 9.85641 4.69792 9.73466 4.47431 9.60736L4.6567 8.8422C4.8982 8.97002 5.26897 9.09727 5.65175 9.09727C6.06375 9.09727 6.28164 8.92117 6.28164 8.65382C6.28152 8.39865 6.09303 8.25306 5.61629 8.07722ZM0.941922 7.80987C0.941922 6.41341 1.90757 5.63622 3.10814 5.63622C3.57329 5.63622 3.92647 5.73337 4.08552 5.81846L3.90284 6.55303C3.72046 6.47441 3.4671 6.40163 3.14931 6.40163C2.43703 6.40163 1.88384 6.84455 1.88384 7.75521C1.88384 8.57497 2.35466 9.09097 3.15549 9.09097C3.42603 9.09097 3.72629 9.03035 3.90284 8.95745L4.03835 9.68003C3.87346 9.76518 3.50271 9.85641 3.01996 9.85641C1.64838 9.85644 0.941922 8.97565 0.941922 7.80987ZM10.3839 13.3739H1.61617V10.7338H10.3839V13.3739ZM9.79036 9.79544H8.74254L7.47105 5.70311H8.45431L8.93686 7.43384C9.07227 7.91935 9.19583 8.38687 9.29024 8.89698H9.30776C9.4078 8.40505 9.53129 7.91933 9.66675 7.45178L10.173 5.70311H11.127L9.79036 9.79544Z" fill="white"/>
</svg>
