<svg width="20" height="20" viewBox="0 0 20 20" fill="none" xmlns="http://www.w3.org/2000/svg">
<path d="M374.101 104.105H309.621C289.781 104.105 273.621 87.945 273.621 68.105V3.625C277.461 5.225 281.141 7.785 284.181 10.825L366.901 93.545C369.941 96.585 372.341 100.265 374.101 104.105Z" fill="#111111"/>
<path d="M103.716 404.797C70.5797 404.797 43.6037 377.837 43.6037 344.701V67.7891H36.1797C16.3397 67.7891 0.179688 83.9491 0.179688 103.789V412.269C0.179688 432.109 16.3397 448.269 36.1797 448.269H274.1C293.94 448.269 310.1 432.109 310.1 412.269V404.797H103.716Z" fill="#111111"/>
<path d="M309.621 128.106C276.549 128.106 249.621 101.194 249.621 68.1056V0.265625H103.765C83.7975 0.265625 67.6055 16.4576 67.6055 36.4256V344.698C67.6055 364.634 83.7655 380.81 103.701 380.81H341.349C361.301 380.81 377.461 364.634 377.461 344.698V128.106H309.621ZM144.469 159.866H206.645C214.597 159.866 221.045 166.314 221.045 174.266C221.045 182.218 214.597 188.666 206.645 188.666H144.469C136.517 188.666 130.069 182.218 130.069 174.266C130.069 166.314 136.501 159.866 144.469 159.866ZM267.813 325.082H144.469C136.517 325.082 130.069 318.634 130.069 310.682C130.069 302.73 136.517 296.282 144.469 296.282H267.813C275.765 296.282 282.213 302.73 282.213 310.682C282.213 318.634 275.765 325.082 267.813 325.082ZM300.613 256.874H144.453C136.501 256.874 130.053 250.426 130.053 242.474C130.053 234.522 136.501 228.074 144.453 228.074H300.613C308.565 228.074 315.013 234.522 315.013 242.474C315.013 250.426 308.565 256.874 300.613 256.874Z" fill="#111111"/>
</svg>
