<svg width="21" height="17" viewBox="0 0 21 17" fill="none" xmlns="http://www.w3.org/2000/svg">
<path d="M16.6441 5.97656H19.4484C20.0292 5.97656 20.5 6.44738 20.5 7.02816V9.83243C20.5 10.4132 20.0292 10.884 19.4484 10.884H16.6441C16.0634 10.884 15.5925 10.4132 15.5925 9.83243V7.02816C15.5925 6.44738 16.0634 5.97656 16.6441 5.97656Z" fill="#01AAC1"/>
<path d="M16.6441 11.9375H19.4484C20.0292 11.9375 20.5 12.4083 20.5 12.9891V15.7934C20.5 16.3741 20.0292 16.845 19.4484 16.845H16.6441C16.0634 16.845 15.5925 16.3741 15.5925 15.7934V12.9891C15.5925 12.4083 16.0634 11.9375 16.6441 11.9375Z" fill="#01AAC1"/>
<path d="M16.6441 0.015625H19.4484C20.0292 0.015625 20.5 0.486442 20.5 1.06722V3.87149C20.5 4.45227 20.0292 4.92309 19.4484 4.92309H16.6441C16.0634 4.92309 15.5925 4.45227 15.5925 3.87149V1.06722C15.5925 0.486442 16.0634 0.015625 16.6441 0.015625Z" fill="#01AAC1"/>
<path d="M1.91987 0.71875H13.4875C14.0682 0.71875 14.5391 1.18957 14.5391 1.77035V3.17248C14.5391 3.75326 14.0682 4.22408 13.4875 4.22408H1.91987C1.33909 4.22408 0.868275 3.75326 0.868275 3.17248V1.77035C0.868275 1.18957 1.33909 0.71875 1.91987 0.71875Z" fill="#01AAC1"/>
<path d="M1.91987 6.67969H13.4875C14.0682 6.67969 14.5391 7.1505 14.5391 7.73129V9.13342C14.5391 9.7142 14.0682 10.185 13.4875 10.185H1.91987C1.33909 10.185 0.868275 9.7142 0.868275 9.13342V7.73129C0.868275 7.1505 1.33909 6.67969 1.91987 6.67969Z" fill="#01AAC1"/>
<path d="M1.91987 12.6328H13.4875C14.0682 12.6328 14.5391 13.1036 14.5391 13.6844V15.0865C14.5391 15.6673 14.0682 16.1381 13.4875 16.1381H1.91987C1.33909 16.1381 0.868275 15.6673 0.868275 15.0865V13.6844C0.868275 13.1036 1.33909 12.6328 1.91987 12.6328Z" fill="#01AAC1"/>
</svg>
