<svg width="13" height="14" viewBox="0 0 13 14" fill="none" xmlns="http://www.w3.org/2000/svg">
<path d="M8.30665 7.18401C8.12012 5.65995 6.78563 5.74501 6.70904 5.75349C6.3587 5.7451 5.2983 5.7916 5.11133 7.18399C5.11134 7.18741 5.11067 7.19079 5.10938 7.19395C5.59437 6.91131 6.14533 6.76156 6.70668 6.75981C7.26802 6.75807 7.8199 6.90438 8.30665 7.18401Z" fill="#ED1C24"/>
<path d="M12.1933 5.56401L11.5327 4.95512L9.55682 4.95312L9.54688 8.42537C9.56227 8.41769 12.1843 8.43365 12.1953 8.41943L12.1933 5.56401ZM11.6581 7.49613H10.0821C10.0367 7.49573 9.99334 7.47743 9.96138 7.44519C9.92943 7.41295 9.91149 7.3694 9.91149 7.324C9.91149 7.27861 9.92943 7.23505 9.96138 7.20281C9.99334 7.17058 10.0367 7.15227 10.0821 7.15188H11.6581C11.703 7.15298 11.7457 7.17159 11.7771 7.20375C11.8085 7.23591 11.8261 7.27907 11.8261 7.324C11.8261 7.36894 11.8085 7.41209 11.7771 7.44425C11.7457 7.47641 11.703 7.49503 11.6581 7.49613ZM11.6581 6.22463H10.0821C10.0594 6.22476 10.0369 6.22041 10.0159 6.21183C9.99494 6.20324 9.97584 6.19058 9.95975 6.17459C9.94365 6.15859 9.93088 6.13957 9.92216 6.11862C9.91345 6.09767 9.90896 6.0752 9.90896 6.05251C9.90896 6.02981 9.91345 6.00735 9.92216 5.9864C9.93088 5.96544 9.94365 5.94642 9.95975 5.93043C9.97584 5.91443 9.99494 5.90177 10.0159 5.89319C10.0369 5.8846 10.0594 5.88025 10.0821 5.88039H11.6581C11.703 5.88148 11.7457 5.90009 11.7771 5.93225C11.8085 5.96441 11.8261 6.00757 11.8261 6.05251C11.8261 6.09745 11.8085 6.14061 11.7771 6.17277C11.7457 6.20492 11.703 6.22354 11.6581 6.22463Z" fill="#ED1C24"/>
<path d="M8.33546 7.63283C7.86062 7.29244 7.29105 7.10938 6.7068 7.10938C6.12254 7.10938 5.55297 7.29244 5.07812 7.63283C5.07812 8.15019 5.20348 8.98989 5.94369 9.41173C6.19363 9.55353 6.47815 9.62287 6.7653 9.61197C7.05246 9.60108 7.3309 9.51038 7.56938 9.35005C8.22204 8.91428 8.33546 8.12234 8.33546 7.63283Z" fill="#ED1C24"/>
<path d="M5.92969 9.78125V10.1395L6.70996 11.298L7.48622 10.1395V9.78125C7.24156 9.89145 6.97629 9.94844 6.70795 9.94844C6.43962 9.94844 6.17435 9.89145 5.92969 9.78125Z" fill="#ED1C24"/>
<path d="M7.73617 10.3848L6.87649 11.6644V12.329C6.87542 12.374 6.85682 12.4167 6.82465 12.4481C6.79249 12.4795 6.74932 12.4971 6.70436 12.4971C6.6594 12.4971 6.61623 12.4795 6.58407 12.4481C6.5519 12.4167 6.5333 12.374 6.53223 12.329V11.6584L5.67455 10.3828C5.30576 10.4584 4.97463 10.6596 4.73766 10.9521C4.50068 11.2446 4.37253 11.6103 4.37509 11.9867C4.37555 11.9908 4.37475 13.0178 4.37509 13.0215C4.37509 13.0175 9.04355 13.0291 9.03563 13.0176V11.9867C9.03845 11.6104 8.91036 11.2449 8.67329 10.9526C8.43623 10.6604 8.10495 10.4597 7.73617 10.3848Z" fill="#ED1C24"/>
<path d="M2.90821 7.78886L2.8923 7.51029C2.89272 7.43417 2.91293 7.35947 2.95096 7.29353C2.98899 7.22759 3.04352 7.17268 3.10919 7.1342C3.36804 6.9723 3.60032 7.13805 3.81756 7.26953L4.20559 6.5691L3.96681 6.44772C3.89784 6.40788 3.84057 6.35059 3.80075 6.28161C3.76094 6.21263 3.73998 6.13438 3.73998 6.05473C3.73998 5.97508 3.76094 5.89684 3.80075 5.82786C3.84057 5.75887 3.89784 5.70159 3.96681 5.66175L4.21157 5.52046L3.7977 4.83397L3.57085 4.98122C3.50248 5.01951 3.4254 5.03953 3.34703 5.03936C3.26867 5.03918 3.19167 5.01881 3.12347 4.98021C3.05528 4.94161 2.99818 4.88608 2.95769 4.81899C2.9172 4.75189 2.89469 4.6755 2.89233 4.59717V4.30469L2.09242 4.3206L2.10634 4.59122C2.10623 4.66971 2.08561 4.74681 2.04652 4.81487C2.00743 4.88293 1.95122 4.93959 1.88348 4.97923C1.63278 5.13645 1.39515 4.96695 1.18107 4.83994L0.79502 5.54035L1.03381 5.66175C1.10278 5.70158 1.16005 5.75887 1.19987 5.82785C1.23969 5.89684 1.26065 5.97508 1.26065 6.05473C1.26065 6.13438 1.23969 6.21263 1.19987 6.28161C1.16005 6.3506 1.10278 6.40788 1.03381 6.44772L0.789062 6.58899L1.20096 7.27349L1.4278 7.12625C1.49669 7.0872 1.57458 7.06683 1.65376 7.06715C1.73294 7.06747 1.81066 7.08848 1.87923 7.12809C1.94779 7.1677 2.00481 7.22454 2.04465 7.29297C2.08448 7.36141 2.10574 7.43906 2.10632 7.51824V7.80278L2.90821 7.78886ZM1.69045 6.05374C1.69239 5.84022 1.77857 5.63611 1.93024 5.48582C2.08191 5.33552 2.28679 5.2512 2.50032 5.2512C2.71384 5.25121 2.91872 5.33553 3.07039 5.48583C3.22205 5.63613 3.30823 5.84025 3.31016 6.05376C3.30822 6.26728 3.22204 6.47139 3.07037 6.62168C2.9187 6.77198 2.71381 6.85629 2.50029 6.85629C2.28677 6.85629 2.08188 6.77196 1.93022 6.62166C1.77855 6.47136 1.69238 6.26725 1.69045 6.05374Z" fill="#ED1C24"/>
<path d="M2.96278 6.05424C2.96138 5.93162 2.91169 5.81451 2.82449 5.7283C2.7373 5.64209 2.61962 5.59375 2.497 5.59375C2.37438 5.59375 2.25671 5.64211 2.16952 5.72832C2.08232 5.81453 2.03264 5.93165 2.03125 6.05426C2.03265 6.17687 2.08234 6.29399 2.16953 6.3802C2.25673 6.4664 2.37441 6.51475 2.49703 6.51475C2.61965 6.51474 2.73732 6.46639 2.82451 6.38018C2.91171 6.29396 2.96139 6.17685 2.96278 6.05424Z" fill="#ED1C24"/>
<path d="M5.32367 2.76129C5.32363 2.8072 5.30538 2.85121 5.27293 2.88366C5.24047 2.91612 5.19646 2.93437 5.15056 2.93441H4.93167C4.97156 3.34623 5.15335 3.73139 5.44592 4.02396C5.73849 4.31653 6.12364 4.49831 6.53547 4.5382C6.54013 4.38967 6.48991 4.15347 6.70661 4.14423C6.72923 4.14428 6.75162 4.14881 6.77249 4.15756C6.79335 4.1663 6.81228 4.17908 6.82819 4.19517C6.84409 4.21126 6.85666 4.23033 6.86516 4.2513C6.87366 4.27226 6.87793 4.2947 6.87772 4.31733V4.5382C7.28955 4.49831 7.67471 4.31653 7.96728 4.02396C8.25986 3.73139 8.44164 3.34623 8.48153 2.93441C8.33166 2.93035 8.09925 2.97878 8.08954 2.76129C8.0896 2.73867 8.09412 2.71628 8.10287 2.69541C8.11161 2.67454 8.12439 2.65561 8.14048 2.6397C8.15657 2.62379 8.17565 2.61123 8.19662 2.60272C8.21759 2.59422 8.24003 2.58995 8.26265 2.59016H8.48352C8.44293 2.17806 8.26071 1.79278 7.9679 1.49998C7.67509 1.20717 7.28982 1.02496 6.87772 0.984375C6.87307 1.13291 6.92328 1.36911 6.70658 1.37836C6.68396 1.3783 6.66157 1.37377 6.64071 1.36502C6.61984 1.35628 6.60091 1.34349 6.58501 1.3274C6.5691 1.31132 6.55654 1.29224 6.54804 1.27127C6.53953 1.25031 6.53526 1.22787 6.53547 1.20525V0.984375C6.12337 1.02496 5.7381 1.20718 5.44529 1.49999C5.15249 1.79279 4.97027 2.17807 4.92969 2.59017C5.07823 2.59481 5.31442 2.5446 5.32367 2.76129ZM6.53349 2.23798C6.53444 2.19295 6.55298 2.15009 6.58516 2.11858C6.61733 2.08707 6.66057 2.06943 6.70561 2.06943C6.75064 2.06943 6.79388 2.08707 6.82606 2.11858C6.85823 2.15009 6.87678 2.19295 6.87772 2.23798V2.86874L7.30951 3.13935C7.34037 3.15952 7.36395 3.18906 7.37677 3.22363C7.3896 3.2582 7.39099 3.29597 7.38074 3.33139C7.37049 3.36681 7.34915 3.39801 7.31985 3.42039C7.29055 3.44277 7.25485 3.45517 7.21798 3.45574C7.16079 3.48142 6.67388 3.13515 6.61505 3.10952C6.59016 3.09431 6.56959 3.07296 6.55531 3.04753C6.54103 3.02209 6.53352 2.99341 6.53349 2.96424V2.23798Z" fill="#ED1C24"/>
<path d="M10.2403 4.61276H10.7777C10.3266 3.82023 9.65239 3.17787 8.83898 2.76562C8.83915 2.93055 8.81977 3.09492 8.78125 3.25528C9.37028 3.58303 9.87095 4.04886 10.2403 4.61276Z" fill="#ED1C24"/>
<path d="M3.23781 4.29842V4.49148L3.25372 4.50343C3.61763 3.98808 4.09063 3.55926 4.63907 3.24746C4.60056 3.0871 4.58118 2.92273 4.58136 2.75781C3.98952 3.06054 3.46906 3.48601 3.05469 4.00583C3.10962 4.03247 3.15593 4.07404 3.18832 4.12579C3.2207 4.17754 3.23786 4.23737 3.23781 4.29842Z" fill="#ED1C24"/>
<path d="M8.82031 10.5968C8.9281 10.708 9.02231 10.8316 9.10096 10.9651C9.9578 10.4542 10.6298 9.68385 11.0198 8.76562H10.5162C10.1472 9.53217 9.55633 10.1702 8.82031 10.5968Z" fill="#ED1C24"/>
<path d="M2.6552 8.13281H2.17969C2.49321 9.32179 3.26132 10.34 4.31849 10.968C4.39646 10.8342 4.49069 10.7105 4.59903 10.5999C3.65798 10.0581 2.96183 9.17452 2.6552 8.13281Z" fill="#ED1C24"/>
</svg>
