<svg width="25" height="18" viewBox="0 0 25 18" fill="none" xmlns="http://www.w3.org/2000/svg">
<path d="M19.6696 17.833H15.7318H14.6715H14.4425V12.5511H16.1699C16.608 12.5511 16.8669 12.0533 16.608 11.6948L13.2477 7.04514C13.0336 6.74644 12.5906 6.74644 12.3765 7.04514L9.01617 11.6948C8.7573 12.0533 9.0112 12.5511 9.45426 12.5511H11.1817V17.833H10.9527H9.89234H5.3273C2.71372 17.6886 0.632812 15.2443 0.632812 12.5959C0.632812 10.7689 1.62348 9.17583 3.09206 8.31459C2.95765 7.95118 2.88796 7.56288 2.88796 7.15466C2.88796 5.28782 4.39636 3.77941 6.26321 3.77941C6.66644 3.77941 7.05475 3.84911 7.41816 3.98352C8.49844 1.69353 10.8283 0.105469 13.5364 0.105469C17.0411 0.110447 19.9285 2.79372 20.257 6.21377C22.9503 6.67675 24.9963 9.17085 24.9963 11.9935C24.9963 15.0103 22.6466 17.6239 19.6696 17.833Z" fill="white"/>
</svg>
