<svg width="8" height="36" viewBox="0 0 8 36" fill="none" xmlns="http://www.w3.org/2000/svg">
<g clip-path="url(#clip0_883_4746)">
<path d="M7.08043 18.0393C7.07342 18.499 6.97706 18.9528 6.79685 19.3748C6.61664 19.7969 6.35612 20.1788 6.03015 20.4988C5.70419 20.8188 5.31917 21.0707 4.8971 21.24C4.47502 21.4093 4.02414 21.4927 3.57023 21.4855C1.64629 21.4855 0.0655932 19.9089 0.084146 18.0111C0.102699 16.1132 1.72422 14.5159 3.5962 14.5235C5.46819 14.531 7.09342 16.1696 7.08043 18.0393Z" fill="#232323"/>
<path d="M7.08035 31.9386C7.10447 33.7914 5.44213 35.4788 3.58684 35.4826C1.73155 35.4864 0.071073 33.8046 0.0840601 31.9461C0.105488 31.0134 0.489561 30.127 1.15278 29.4795C1.816 28.8321 2.70475 28.476 3.6258 28.4886C4.53067 28.4985 5.39642 28.8637 6.04077 29.5072C6.68513 30.1507 7.05781 31.0224 7.08035 31.9386Z" fill="#232323"/>
<path d="M7.08425 4.0414C7.05085 5.92049 5.3811 7.5647 3.53509 7.52524C1.68908 7.48578 0.112081 5.88103 0.0842518 4.03576C0.0601331 2.13788 1.67052 0.529373 3.58518 0.531252C5.49984 0.533131 7.11022 2.15479 7.08425 4.0414Z" fill="#232323"/>
</g>
<defs>
<clipPath id="clip0_883_4746">
<rect width="7" height="35" fill="white" transform="translate(0.0839844 0.53125)"/>
</clipPath>
</defs>
</svg>
