<svg width="22" height="22" viewBox="0 0 22 22" fill="none" xmlns="http://www.w3.org/2000/svg">
  <circle cx="11.3906" cy="10.625" r="10.6133" fill="#01AAC1"/>
  <path d="M6.68191 15.3329C6.7138 15.3648 6.75168 15.3901 6.79338 15.4074C6.83507 15.4247 6.87976 15.4336 6.9249 15.4336C6.97003 15.4336 7.01473 15.4247 7.05642 15.4074C7.09812 15.3901 7.136 15.3648 7.16789 15.3329L11.3889 11.1118L15.6117 15.3329C15.6762 15.3973 15.7636 15.4335 15.8547 15.4335C15.9459 15.4335 16.0333 15.3973 16.0977 15.3329C16.1622 15.2684 16.1984 15.181 16.1984 15.0899C16.1984 14.9987 16.1622 14.9113 16.0977 14.8469L11.8749 10.6258L16.096 6.40305C16.1604 6.3386 16.1966 6.25119 16.1966 6.16005C16.1966 6.06891 16.1604 5.9815 16.096 5.91706C16.0315 5.85261 15.9441 5.81641 15.853 5.81641C15.7619 5.81641 15.6745 5.85261 15.61 5.91706L11.3889 10.1398L7.16618 5.91877C7.10047 5.86251 7.01596 5.83311 6.92952 5.83645C6.84308 5.83978 6.76108 5.87562 6.69991 5.93678C6.63875 5.99795 6.60291 6.07995 6.59958 6.16639C6.59624 6.25283 6.62564 6.33734 6.68191 6.40305L10.903 10.6258L6.68191 14.8486C6.61794 14.9129 6.58203 15 6.58203 15.0907C6.58203 15.1815 6.61794 15.2685 6.68191 15.3329Z" fill="white" stroke="white" stroke-width="1.5"/>
</svg>
