<svg width="14" height="14" viewBox="0 0 14 14" fill="none" xmlns="http://www.w3.org/2000/svg">
<path d="M8.24275 0.393357H1.76732C1.25925 0.451404 0.819574 0.88682 0.635997 1.51513C0.212377 2.97012 -0.00929621 5.34673 -0.00976562 6.79989C-0.00976562 8.25306 0.212377 10.6291 0.635997 12.084C0.819117 12.7124 1.25925 13.1478 1.76732 13.2059H8.24275C8.54292 13.2404 8.84816 13.1895 9.12672 13.0365C9.24148 12.973 9.34932 12.8968 9.41862 12.8061L13.6562 7.83036C13.8659 7.55642 13.9902 7.18995 13.9902 6.79989C13.9902 6.40984 13.8654 6.04337 13.6562 5.76943L9.41862 0.793691C9.34882 0.702378 9.24148 0.626173 9.12672 0.563284C8.84816 0.409688 8.54341 0.358275 8.24275 0.393357Z" fill="#01AAC1"/>
</svg>
