<svg
		aria-hidden="true"
		focusable="false"
		data-prefix="far"
		data-icon="expand"
		class="svg-inline--fa fa-expand absolute left-1/2 top-1/2 h-[1em] -translate-x-1/2 -translate-y-1/2 align-[-0.125em]"
		role="img"
		xmlns="http://www.w3.org/2000/svg"
		viewBox="0 0 448 512"
>
	<path
			fill="currentColor"
			d="M136 32c13.3 0 24 10.7 24 24s-10.7 24-24 24H48v88c0 13.3-10.7 24-24 24s-24-10.7-24-24V56C0 42.7 10.7 32 24 32H136zM0 344c0-13.3 10.7-24 24-24s24 10.7 24 24v88h88c13.3 0 24 10.7 24 24s-10.7 24-24 24H24c-13.3 0-24-10.7-24-24V344zM424 32c13.3 0 24 10.7 24 24V168c0 13.3-10.7 24-24 24s-24-10.7-24-24V80H312c-13.3 0-24-10.7-24-24s10.7-24 24-24H424zM400 344c0-13.3 10.7-24 24-24s24 10.7 24 24V456c0 13.3-10.7 24-24 24H312c-13.3 0-24-10.7-24-24s10.7-24 24-24h88V344z"
	></path>
</svg>