<svg width="25" height="17" viewBox="0 0 25 17" fill="none" xmlns="http://www.w3.org/2000/svg">
<path d="M23.54 0.921875H1.46C0.929807 0.921875 0.5 1.39944 0.5 1.98854V15.8552C0.5 16.4443 0.929807 16.9219 1.46 16.9219H23.54C24.0702 16.9219 24.5 16.4443 24.5 15.8552V1.98854C24.5 1.39944 24.0702 0.921875 23.54 0.921875Z" fill="#10427A"/>
<path d="M14.3508 4.49219H11.1094V11.1522H14.3508V4.49219Z" fill="#FF5F00"/>
<path d="M11.3213 7.82199C11.3213 6.46881 11.877 5.26859 12.7311 4.49198C12.1034 3.92718 11.311 3.58594 10.4467 3.58594C8.39891 3.58594 6.74219 5.4804 6.74219 7.82199C6.74219 10.1636 8.39891 12.058 10.4467 12.058C11.311 12.058 12.1034 11.7168 12.7311 11.152C11.877 10.3872 11.3213 9.17518 11.3213 7.82199Z" fill="#EB001B"/>
<path d="M18.7311 7.82199C18.7311 10.1636 17.0744 12.058 15.0266 12.058C14.1622 12.058 13.3699 11.7168 12.7422 11.152C13.6066 10.3754 14.1519 9.17518 14.1519 7.82199C14.1519 6.46881 13.5963 5.26859 12.7422 4.49198C13.3699 3.92718 14.1622 3.58594 15.0266 3.58594C17.0744 3.58594 18.7311 5.49216 18.7311 7.82199Z" fill="#F79E1B"/>
<path d="M8.49076 14.764V14.0581C8.49076 13.7875 8.33076 13.611 8.05647 13.611C7.91933 13.611 7.77076 13.6581 7.6679 13.811C7.5879 13.6816 7.47362 13.611 7.30219 13.611C7.1879 13.611 7.07362 13.6463 6.98219 13.7757V13.6346H6.74219V14.764H6.98219V14.1404C6.98219 13.9404 7.08504 13.8463 7.24504 13.8463C7.40504 13.8463 7.48504 13.9522 7.48504 14.1404V14.764H7.72504V14.1404C7.72504 13.9404 7.83933 13.8463 7.9879 13.8463C8.1479 13.8463 8.2279 13.9522 8.2279 14.1404V14.764H8.49076ZM12.045 13.6346H11.6565V13.2934H11.4165V13.6346H11.1993V13.8581H11.4165V14.3757C11.4165 14.6346 11.5193 14.7875 11.7936 14.7875C11.8965 14.7875 12.0108 14.7522 12.0908 14.7051L12.0222 14.4934C11.9536 14.5404 11.8736 14.5522 11.8165 14.5522C11.7022 14.5522 11.6565 14.4816 11.6565 14.364V13.8581H12.045V13.6346ZM14.0793 13.611C13.9422 13.611 13.8508 13.6816 13.7936 13.7757V13.6346H13.5536V14.764H13.7936V14.1287C13.7936 13.9404 13.8736 13.8346 14.0222 13.8346C14.0679 13.8346 14.125 13.8463 14.1708 13.8581L14.2393 13.6228C14.1936 13.611 14.125 13.611 14.0793 13.611ZM11.005 13.7287C10.8908 13.6463 10.7308 13.611 10.5593 13.611C10.285 13.611 10.1022 13.7522 10.1022 13.9757C10.1022 14.164 10.2393 14.2699 10.4793 14.3051L10.5936 14.3169C10.7193 14.3404 10.7879 14.3757 10.7879 14.4346C10.7879 14.5169 10.6965 14.5757 10.5365 14.5757C10.3765 14.5757 10.2508 14.5169 10.1708 14.4581L10.0565 14.6463C10.1822 14.7404 10.3536 14.7875 10.525 14.7875C10.845 14.7875 11.0279 14.6346 11.0279 14.4228C11.0279 14.2228 10.8793 14.1169 10.6508 14.0816L10.5365 14.0699C10.4336 14.0581 10.3536 14.0346 10.3536 13.964C10.3536 13.8816 10.4336 13.8346 10.5593 13.8346C10.6965 13.8346 10.8336 13.8934 10.9022 13.9287L11.005 13.7287ZM17.3822 13.611C17.245 13.611 17.1536 13.6816 17.0965 13.7757V13.6346H16.8565V14.764H17.0965V14.1287C17.0965 13.9404 17.1765 13.8346 17.325 13.8346C17.3708 13.8346 17.4279 13.8463 17.4736 13.8581L17.5422 13.6228C17.4965 13.611 17.4279 13.611 17.3822 13.611ZM14.3193 14.1993C14.3193 14.5404 14.5479 14.7875 14.9022 14.7875C15.0622 14.7875 15.1765 14.7522 15.2908 14.6581L15.1765 14.4581C15.085 14.5287 14.9936 14.564 14.8908 14.564C14.6965 14.564 14.5593 14.4228 14.5593 14.1993C14.5593 13.9875 14.6965 13.8463 14.8908 13.8346C14.9936 13.8346 15.085 13.8699 15.1765 13.9404L15.2908 13.7404C15.1765 13.6463 15.0622 13.611 14.9022 13.611C14.5479 13.611 14.3193 13.8581 14.3193 14.1993ZM16.5365 14.1993V13.6346H16.2965V13.7757C16.2165 13.6699 16.1022 13.611 15.9536 13.611C15.645 13.611 15.405 13.8581 15.405 14.1993C15.405 14.5404 15.645 14.7875 15.9536 14.7875C16.1136 14.7875 16.2279 14.7287 16.2965 14.6228V14.764H16.5365V14.1993ZM15.6565 14.1993C15.6565 13.9993 15.7822 13.8346 15.9879 13.8346C16.1822 13.8346 16.3193 13.9875 16.3193 14.1993C16.3193 14.3993 16.1822 14.564 15.9879 14.564C15.7822 14.5522 15.6565 14.3993 15.6565 14.1993ZM12.7879 13.611C12.4679 13.611 12.2393 13.8463 12.2393 14.1993C12.2393 14.5522 12.4679 14.7875 12.7993 14.7875C12.9593 14.7875 13.1193 14.7404 13.245 14.6346L13.1308 14.4581C13.0393 14.5287 12.925 14.5757 12.8108 14.5757C12.6622 14.5757 12.5136 14.5051 12.4793 14.3051H13.2908V14.211C13.3022 13.8463 13.0965 13.611 12.7879 13.611ZM12.7879 13.8228C12.9365 13.8228 13.0393 13.9169 13.0622 14.0934H12.4908C12.5136 13.9404 12.6165 13.8228 12.7879 13.8228ZM18.7422 14.1993V13.1875H18.5022V13.7757C18.4222 13.6699 18.3079 13.611 18.1593 13.611C17.8508 13.611 17.6108 13.8581 17.6108 14.1993C17.6108 14.5404 17.8508 14.7875 18.1593 14.7875C18.3193 14.7875 18.4336 14.7287 18.5022 14.6228V14.764H18.7422V14.1993ZM17.8622 14.1993C17.8622 13.9993 17.9879 13.8346 18.1936 13.8346C18.3879 13.8346 18.525 13.9875 18.525 14.1993C18.525 14.3993 18.3879 14.564 18.1936 14.564C17.9879 14.5522 17.8622 14.3993 17.8622 14.1993ZM9.83933 14.1993V13.6346H9.59933V13.7757C9.51933 13.6699 9.40504 13.611 9.25647 13.611C8.9479 13.611 8.7079 13.8581 8.7079 14.1993C8.7079 14.5404 8.9479 14.7875 9.25647 14.7875C9.41647 14.7875 9.53076 14.7287 9.59933 14.6228V14.764H9.83933V14.1993ZM8.9479 14.1993C8.9479 13.9993 9.07362 13.8346 9.27933 13.8346C9.47362 13.8346 9.61076 13.9875 9.61076 14.1993C9.61076 14.3993 9.47362 14.564 9.27933 14.564C9.07362 14.5522 8.9479 14.3993 8.9479 14.1993Z" fill="white"/>
</svg>
