<svg
        aria-hidden="true"
        focusable="false"
        data-prefix="far"
        data-icon="compress"
        class="svg-inline--fa fa-compress absolute left-1/2 top-1/2 h-[1em] -translate-x-1/2 -translate-y-1/2 align-[-0.125em]"
        role="img"
        xmlns="http://www.w3.org/2000/svg"
        viewBox="0 0 448 512"
>
    <path
            fill="currentColor"
            d="M160 56c0-13.3-10.7-24-24-24s-24 10.7-24 24v88H24c-13.3 0-24 10.7-24 24s10.7 24 24 24H136c13.3 0 24-10.7 24-24V56zM24 320c-13.3 0-24 10.7-24 24s10.7 24 24 24h88v88c0 13.3 10.7 24 24 24s24-10.7 24-24V344c0-13.3-10.7-24-24-24H24zM336 56c0-13.3-10.7-24-24-24s-24 10.7-24 24V168c0 13.3 10.7 24 24 24H424c13.3 0 24-10.7 24-24s-10.7-24-24-24H336V56zM312 320c-13.3 0-24 10.7-24 24V456c0 13.3 10.7 24 24 24s24-10.7 24-24V368h88c13.3 0 24-10.7 24-24s-10.7-24-24-24H312z"
    ></path>
</svg>