<svg width="12" height="15" viewBox="0 0 12 15" fill="none" xmlns="http://www.w3.org/2000/svg">
<path d="M2.59961 11.1415H6.24406H6.57741L4.64408 8.48438L2.59961 11.1415Z" fill="white"/>
<path d="M8.39708 3.64454C8.41277 3.64634 8.42864 3.64634 8.44433 3.64454H11.3554L8.22213 0.644531V3.43023C8.20903 3.53605 8.28738 3.63199 8.39708 3.64454Z" fill="white"/>
<path d="M7.04477 6.9859C7.30249 6.9859 7.51142 6.78443 7.51142 6.53592C7.51142 6.28741 7.30249 6.08594 7.04477 6.08594C6.78706 6.08594 6.57812 6.28741 6.57812 6.53592C6.57812 6.78443 6.78706 6.9859 7.04477 6.9859Z" fill="white"/>
<path d="M8.44444 4.49999C7.8308 4.49999 7.33335 4.02031 7.33335 3.42858V0H1.33333C0.596931 0 0 0.575655 0 1.28572V13.7143C0 14.4243 0.596931 15 1.33333 15H10.6667C11.403 15 12 14.4244 12 13.7143V4.49999H8.44444ZM7.04442 5.22859C7.79307 5.22859 8.39995 5.81381 8.39995 6.53572C8.39995 7.25764 7.79307 7.84285 7.04442 7.84285C6.29576 7.84285 5.68888 7.25764 5.68888 6.53572C5.68888 5.81381 6.29576 5.22859 7.04442 5.22859ZM10.2444 11.7215C10.173 11.8772 10.0201 11.9836 9.84443 12H1.71113C1.53542 11.9836 1.3825 11.8772 1.31113 11.7215C1.23763 11.5606 1.25439 11.3748 1.35558 11.2286L4.28889 7.41432C4.37498 7.30891 4.50535 7.24607 4.64444 7.24287C4.78608 7.23516 4.92138 7.30038 4.99999 7.41432L6.91111 10.0286L7.8222 9.02148C7.90846 8.91881 8.041 8.86287 8.17775 8.87148C8.31369 8.88301 8.43657 8.95413 8.5111 9.06434L10.2 11.2501C10.3015 11.3881 10.3184 11.568 10.2444 11.7215Z" fill="white"/>
<path d="M7.44531 10.8008L7.66756 11.1436H8.95644L8.1342 10.0508L7.44531 10.8008Z" fill="white"/>
</svg>
