<svg width="12" height="16" viewBox="0 0 12 16" fill="none" xmlns="http://www.w3.org/2000/svg">
<path d="M11.2405 6.25606H10.9152V4.51815C10.9152 4.50731 10.9136 4.49639 10.9123 4.48542C10.9118 4.41641 10.892 4.34862 10.8493 4.29492L8.23678 0.991224C8.23599 0.99038 8.23523 0.99008 8.23469 0.989154C8.21912 0.9699 8.20096 0.953887 8.18177 0.940026C8.17609 0.935805 8.17036 0.932264 8.16441 0.928615C8.14778 0.918566 8.13014 0.910233 8.11198 0.904214C8.10706 0.902689 8.10263 0.900456 8.09771 0.89904C8.07798 0.893866 8.05749 0.890625 8.03673 0.890625H1.61616C1.32297 0.890625 1.08479 1.1546 1.08479 1.47889V6.25592H0.759493C0.340078 6.25592 0 6.63223 0 7.09669V11.4688C0 11.933 0.340078 12.3095 0.759493 12.3095H1.08481V15.3024C1.08481 15.6266 1.32299 15.8906 1.61618 15.8906H10.3838C10.6767 15.8906 10.9152 15.6267 10.9152 15.3024V12.3095H11.2406C11.6598 12.3095 12 11.933 12 11.4688V7.09682C12 6.63239 11.6598 6.25606 11.2405 6.25606ZM1.61616 1.479H7.77104V4.4886C7.77104 4.6511 7.89013 4.78272 8.03673 4.78272H10.3838V6.25625H1.61616V1.479ZM7.7228 8.38092C7.7228 8.81109 7.59333 9.17588 7.358 9.42348C7.05158 9.7426 6.59831 9.8862 6.06841 9.8862C5.95082 9.8862 5.84484 9.87944 5.76246 9.86664V11.4372H4.87349V7.10358C5.1502 7.05153 5.53894 7.01224 6.08635 7.01224C6.63957 7.01224 7.03406 7.12964 7.29886 7.36431C7.55207 7.58598 7.7228 7.9508 7.7228 8.38092ZM1.45288 11.4372V7.10358C1.72962 7.05153 2.11833 7.01224 2.66574 7.01224C3.21903 7.01224 3.61348 7.12964 3.87825 7.36431C4.13154 7.58598 4.30214 7.95082 4.30214 8.38094C4.30214 8.81112 4.17275 9.1759 3.93734 9.42351C3.63097 9.74276 3.1777 9.88622 2.64783 9.88622C2.53022 9.88622 2.42424 9.87947 2.34173 9.86667V11.4372H1.45288V11.4372ZM10.3838 15.1431H1.61616V12.3095H10.3838V15.1431H10.3838ZM11.0433 7.87915H9.9601V11.4372H9.05955V7.87915H7.99395V7.04505H11.0433V7.87915Z" fill="white"/>
</svg>
