<svg width="5" height="17" viewBox="0 0 5 17" fill="none" xmlns="http://www.w3.org/2000/svg">
<g clip-path="url(#clip0_1374_1113)">
<path d="M4.30453 8.50358C4.30112 8.72688 4.25432 8.94732 4.16679 9.1523C4.07926 9.35728 3.95271 9.54279 3.79439 9.69823C3.63606 9.85367 3.44906 9.976 3.24405 10.0582C3.03904 10.1405 2.82004 10.181 2.59957 10.1775C1.66509 10.1775 0.897317 9.41172 0.906329 8.48989C0.91534 7.56806 1.70294 6.79226 2.61219 6.79591C3.52144 6.79956 4.31083 7.59544 4.30453 8.50358Z" fill="#232323"/>
<path d="M4.30448 15.255C4.3162 16.1549 3.50878 16.9745 2.60764 16.9763C1.7065 16.9782 0.899979 16.1613 0.906287 15.2586C0.916695 14.8056 1.10324 14.375 1.42538 14.0606C1.74752 13.7461 2.17919 13.5731 2.62656 13.5793C3.06607 13.5841 3.48658 13.7615 3.79955 14.074C4.11252 14.3866 4.29354 14.8099 4.30448 15.255Z" fill="#232323"/>
<path d="M4.30638 1.70493C4.29016 2.61763 3.47913 3.41625 2.5825 3.39708C1.68587 3.37791 0.919897 2.59846 0.90638 1.70219C0.894665 0.780361 1.67685 -0.000911904 2.60683 7.98876e-07C3.53681 0.000913502 4.31899 0.788575 4.30638 1.70493Z" fill="#232323"/>
</g>
<defs>
<clipPath id="clip0_1374_1113">
<rect width="3.4" height="17" fill="white" transform="translate(0.90625)"/>
</clipPath>
</defs>
</svg>
