<svg width="25" height="17" viewBox="0 0 25 17" fill="none" xmlns="http://www.w3.org/2000/svg">
<path d="M23.54 0.921875H1.46C0.929807 0.921875 0.5 1.39944 0.5 1.98854V15.8552C0.5 16.4443 0.929807 16.9219 1.46 16.9219H23.54C24.0702 16.9219 24.5 16.4443 24.5 15.8552V1.98854C24.5 1.39944 24.0702 0.921875 23.54 0.921875Z" fill="#25459A"/>
<path d="M12.4889 7.96546C12.4799 8.70837 13.1239 9.12298 13.6091 9.36946C14.1076 9.62239 14.275 9.78456 14.2731 10.0107C14.2693 10.3569 13.8755 10.5096 13.5068 10.5156C12.8638 10.526 12.4899 10.3346 12.1926 10.1897L11.961 11.32C12.2592 11.4633 12.8114 11.5883 13.3841 11.5937C14.7283 11.5937 15.6078 10.9019 15.6125 9.8292C15.6178 8.46784 13.8065 8.39246 13.8189 7.78394C13.8231 7.59945 13.992 7.40257 14.362 7.35248C14.5452 7.32718 15.0508 7.30784 15.6239 7.58309L15.8489 6.48954C15.5407 6.3725 15.1445 6.26042 14.6512 6.26042C13.386 6.26042 12.4961 6.96167 12.4889 7.96546ZM18.0107 6.35464C17.7653 6.35464 17.5584 6.50392 17.4661 6.73305L15.5459 11.5134L16.8892 11.5134L17.1565 10.7432L18.7979 10.7432L18.953 11.5134L20.1369 11.5134L19.1038 6.35464L18.0107 6.35464ZM18.1986 7.74823L18.5863 9.68537L17.5246 9.68537L18.1986 7.74823ZM10.8603 6.35464L9.80154 11.5134L11.0815 11.5134L12.1398 6.35464L10.8603 6.35464ZM8.96678 6.35464L7.63449 9.8659L7.09558 6.88034C7.03232 6.54707 6.78261 6.35464 6.5053 6.35464L4.32732 6.35464L4.29688 6.50442C4.74398 6.60559 5.25197 6.76875 5.55972 6.94333C5.74807 7.04995 5.80182 7.14319 5.86366 7.39661L6.8844 11.5134L8.23714 11.5134L10.311 6.35464L8.96678 6.35464Z" fill="white"/>
</svg>
