<svg width="443" height="513" viewBox="0 0 443 513" fill="none" xmlns="http://www.w3.org/2000/svg">
<path d="M395.631 102.092C395.618 100.151 394.842 98.2941 393.471 96.9218L299.271 2.38176C298.596 1.70667 297.795 1.17177 296.913 0.807913C296.03 0.444055 295.085 0.258437 294.131 0.261763H53.7807C51.8437 0.261761 49.9859 1.03055 48.6153 2.39928C47.2447 3.768 46.4734 5.62476 46.4707 7.56176V225.432H395.631V102.092Z" fill="black"/>
<path d="M427.211 255.432H15.2109C11.2327 255.432 7.41738 257.012 4.60434 259.825C1.79129 262.638 0.210938 266.453 0.210938 270.432L0.210938 428.732C0.210938 432.71 1.79129 436.525 4.60434 439.338C7.41738 442.151 11.2327 443.732 15.2109 443.732H427.211C431.189 443.732 435.004 442.151 437.818 439.338C440.631 436.525 442.211 432.71 442.211 428.732V270.432C442.211 266.453 440.631 262.638 437.818 259.825C435.004 257.012 431.189 255.432 427.211 255.432ZM167.441 410.032C165.83 411.165 164.011 411.97 162.089 412.4C160.166 412.831 158.178 412.879 156.237 412.541C154.296 412.203 152.441 411.486 150.777 410.431C149.114 409.375 147.674 408.003 146.541 406.392L119.981 368.632L93.3809 406.402C91.0895 409.655 87.5996 411.864 83.6792 412.544C79.7588 413.224 75.7288 412.318 72.4759 410.027C69.2231 407.735 67.0137 404.245 66.3339 400.325C65.6541 396.404 66.5595 392.375 68.8509 389.122L101.651 342.572L74.0509 303.342C71.7621 300.087 70.8598 296.057 71.5424 292.138C72.225 288.218 74.4367 284.73 77.6909 282.442C80.9451 280.153 84.9753 279.25 88.8948 279.933C92.8143 280.616 96.3021 282.827 98.5909 286.082L120.001 316.522L141.451 286.072C142.573 284.432 144.01 283.031 145.678 281.951C147.346 280.871 149.213 280.133 151.168 279.781C153.124 279.428 155.13 279.467 157.071 279.897C159.011 280.326 160.847 281.137 162.471 282.281C164.095 283.426 165.476 284.882 166.533 286.565C167.59 288.248 168.302 290.124 168.627 292.085C168.953 294.045 168.886 296.05 168.43 297.985C167.974 299.919 167.138 301.743 165.971 303.352L138.331 342.582L171.081 389.132C172.214 390.743 173.019 392.562 173.45 394.484C173.88 396.406 173.928 398.395 173.59 400.336C173.252 402.276 172.535 404.132 171.48 405.795C170.425 407.459 169.052 408.898 167.441 410.032ZM242.631 412.672C231.761 412.742 224.301 412.772 219.131 412.772C208.191 412.772 207.471 412.642 206.331 412.432C202.881 411.796 199.763 409.97 197.52 407.274C195.276 404.577 194.049 401.18 194.051 397.672V294.672C194.051 290.693 195.631 286.878 198.444 284.065C201.257 281.252 205.073 279.672 209.051 279.672C213.029 279.672 216.844 281.252 219.658 284.065C222.471 286.878 224.051 290.693 224.051 294.672V382.672C229.651 382.672 236.221 382.672 242.451 382.592H242.541C246.519 382.58 250.339 384.149 253.161 386.953C255.982 389.758 257.574 393.568 257.586 397.547C257.598 401.525 256.029 405.345 253.224 408.166C250.42 410.988 246.609 412.58 242.631 412.592V412.672ZM375.431 378.062C371.841 398.172 352.731 412.762 329.981 412.762C311.731 412.762 294.591 405.402 282.981 392.562C280.309 389.614 278.917 385.725 279.112 381.751C279.307 377.777 281.073 374.044 284.021 371.372C286.969 368.7 290.857 367.308 294.831 367.503C298.805 367.698 302.539 369.464 305.211 372.412C311.091 378.892 320.361 382.762 330.011 382.762C338.741 382.762 345.071 377.592 345.931 372.762C347.041 366.512 336.931 362.252 333.771 361.092C317.771 355.172 303.471 348.832 302.871 348.562C302.148 348.243 301.452 347.865 300.791 347.432C295.149 343.798 290.678 338.611 287.914 332.496C285.15 326.381 284.211 319.598 285.211 312.962C287.301 298.372 297.931 286.492 312.961 281.962C342.201 273.162 366.231 292.962 367.241 293.822L347.931 316.822L348.031 316.912C347.911 316.812 335.151 306.652 321.611 310.732C316.171 312.372 315.101 315.842 314.901 317.262C314.75 318.096 314.815 318.955 315.087 319.758C315.36 320.561 315.833 321.282 316.461 321.852C320.361 323.552 331.831 328.482 344.121 333.012C371.351 343.022 378.151 362.852 375.431 378.062Z" fill="black"/>
<path d="M46.4707 504.962C46.4734 506.899 47.2447 508.756 48.6153 510.125C49.9859 511.494 51.8437 512.262 53.7807 512.262H388.321C390.258 512.262 392.116 511.494 393.486 510.125C394.857 508.756 395.628 506.899 395.631 504.962V473.732H46.4707V504.962Z" fill="black"/>
</svg>
