<svg width="27" height="27" viewBox="0 0 27 27" fill="none" xmlns="http://www.w3.org/2000/svg">
<path d="M3.90091 21.5594C4.2259 21.4856 4.55695 21.4417 4.88994 21.4282L5.15713 20.8094C5.27665 20.5315 5.4749 20.2947 5.72742 20.1281C5.97995 19.9615 6.27572 19.8725 6.57825 19.872C6.88077 19.8715 7.17683 19.9595 7.42991 20.1253C7.68298 20.291 7.88201 20.5272 8.00244 20.8048L8.26963 21.4282L8.80401 21.4751C8.74545 21.2011 8.76 20.9166 8.84619 20.6501C8.94061 20.3538 9.12047 20.0921 9.36316 19.8978C9.60585 19.7035 9.90056 19.5852 10.2103 19.5579L11.2556 19.4641L11.6681 18.4985C11.7904 18.2133 11.9937 17.9702 12.2529 17.7994C12.512 17.6286 12.8155 17.5375 13.1259 17.5375C13.4362 17.5375 13.7398 17.6286 13.9989 17.7994C14.258 17.9702 14.4614 18.2133 14.5837 18.4985L14.9962 19.4641L16.0415 19.5579C16.2656 19.5774 16.4829 19.6447 16.6788 19.7551C16.8748 19.8656 17.0449 20.0166 17.1776 20.1982C17.3104 20.3798 17.4027 20.5877 17.4485 20.8079C17.4943 21.0281 17.4924 21.2556 17.4431 21.4751L17.9821 21.4282L18.2446 20.8095C18.3696 20.5321 18.5728 20.2973 18.8294 20.1338C19.086 19.9703 19.3847 19.8853 19.6889 19.8893C19.9931 19.8933 20.2896 19.986 20.5418 20.1561C20.794 20.3263 20.991 20.5664 21.1087 20.8469L21.3571 21.4282C21.6913 21.4424 22.0238 21.4847 22.3509 21.5548C22.5982 21.1412 22.4485 19.3821 22.4868 18.9063C22.4881 17.9918 22.2012 17.1002 21.6668 16.358C21.1325 15.6158 20.3779 15.0609 19.5102 14.772L16.8149 13.872C16.7456 13.8478 16.6717 13.8394 16.5987 13.8475C16.5257 13.8556 16.4554 13.88 16.393 13.9188C15.4209 14.5513 14.2863 14.8883 13.1266 14.8891C11.9668 14.89 10.8317 14.5546 9.85869 13.9235C9.79387 13.8799 9.71917 13.8532 9.6414 13.8458C9.56362 13.8385 9.48524 13.8507 9.41338 13.8813L6.7415 14.772C5.87383 15.0609 5.11924 15.6158 4.58491 16.358C4.05057 17.1001 3.76365 17.9918 3.7649 18.9063C3.80624 19.3755 3.6494 21.1554 3.90091 21.5594Z" fill="white"/>
<path d="M13.1234 13.95C15.9401 13.95 18.2234 11.6667 18.2234 8.85C18.2234 6.03335 15.9401 3.75 13.1234 3.75C10.3068 3.75 8.02344 6.03335 8.02344 8.85C8.02344 11.6667 10.3068 13.95 13.1234 13.95Z" fill="white"/>
<path d="M13.125 4.14495e-09C10.7878 -5.87252e-05 8.49303 0.62398 6.47775 1.80763C4.46247 2.99128 2.79981 4.6916 1.6616 6.73288C0.523382 8.77417 -0.0491039 11.0824 0.00330042 13.419C0.0557048 15.7555 0.731098 18.0357 1.95969 20.024C2.02531 20.1296 2.1302 20.2048 2.25129 20.2331C2.37238 20.2614 2.49974 20.2404 2.60536 20.1748C2.71099 20.1092 2.78622 20.0043 2.8145 19.8832C2.84279 19.7621 2.82182 19.6347 2.7562 19.5291C1.61574 17.6829 0.988937 15.5656 0.940534 13.396C0.892132 11.2265 1.42389 9.08334 2.48087 7.18806C3.53785 5.29278 5.08171 3.71409 6.95294 2.6151C8.82418 1.51612 10.9549 0.936688 13.125 0.936688C15.2951 0.936688 17.4258 1.51612 19.2971 2.6151C21.1683 3.71409 22.7122 5.29278 23.7691 7.18806C24.8261 9.08334 25.3579 11.2265 25.3095 13.396C25.2611 15.5656 24.6343 17.6829 23.4938 19.5291C23.4282 19.6347 23.4072 19.7621 23.4355 19.8832C23.4638 20.0043 23.539 20.1092 23.6446 20.1748C23.7503 20.2404 23.8776 20.2614 23.9987 20.2331C24.1198 20.2048 24.2247 20.1296 24.2903 20.024C25.5189 18.0357 26.1943 15.7555 26.2467 13.419C26.2991 11.0824 25.7266 8.77417 24.5884 6.73288C23.4502 4.6916 21.7875 2.99128 19.7723 1.80763C17.757 0.62398 15.4622 -5.87252e-05 13.125 4.14495e-09Z" fill="white"/>
<path d="M23.8074 16.6477C24.3174 15.1014 24.4856 13.4628 24.3005 11.8452C24.1154 10.2275 23.5813 8.66931 22.7351 7.27821C21.8889 5.88712 20.7509 4.69629 19.3995 3.78799C18.0482 2.87969 16.5158 2.27557 14.9082 2.01736C13.3005 1.75914 11.656 1.853 10.0882 2.29243C8.52041 2.73187 7.06668 3.50641 5.82746 4.56255C4.58823 5.6187 3.59304 6.93127 2.91064 8.4096C2.22824 9.88793 1.87489 11.4968 1.875 13.125C1.87412 14.3221 2.06578 15.5115 2.44263 16.6477C2.46202 16.7062 2.49272 16.7602 2.533 16.8068C2.57327 16.8533 2.62232 16.8915 2.67734 16.9191C2.73237 16.9467 2.79229 16.9632 2.8537 16.9677C2.9151 16.9721 2.97677 16.9644 3.03521 16.945C3.09364 16.9257 3.14768 16.895 3.19424 16.8547C3.24081 16.8144 3.27898 16.7654 3.30659 16.7103C3.3342 16.6553 3.3507 16.5954 3.35515 16.534C3.3596 16.4726 3.35191 16.4109 3.33252 16.3525C2.86528 14.935 2.71129 13.4331 2.88119 11.9503C3.05109 10.4675 3.54083 9.03933 4.31659 7.76432C5.09235 6.48932 6.13564 5.3979 7.37439 4.56546C8.61314 3.73303 10.0178 3.17941 11.4914 2.94285C12.965 2.7063 14.4724 2.79244 15.9095 3.19533C17.3465 3.59822 18.679 4.30825 19.8148 5.27638C20.9507 6.24452 21.8628 7.44768 22.4883 8.80276C23.1138 10.1578 23.4376 11.6325 23.4375 13.125C23.4384 14.2217 23.2628 15.3115 22.9175 16.3525C22.898 16.4109 22.8902 16.4727 22.8945 16.5341C22.8989 16.5956 22.9153 16.6556 22.9429 16.7108C22.9705 16.7659 23.0087 16.815 23.0553 16.8554C23.1019 16.8957 23.156 16.9265 23.2145 16.9459C23.273 16.9653 23.3348 16.973 23.3963 16.9685C23.4577 16.964 23.5177 16.9474 23.5728 16.9197C23.6279 16.8921 23.6769 16.8538 23.7172 16.8071C23.7574 16.7604 23.7881 16.7063 23.8074 16.6477Z" fill="white"/>
<path d="M21.9441 22.419L20.7207 22.3065L20.2332 21.1769C20.1846 21.0683 20.1056 20.9762 20.0058 20.9116C19.906 20.8469 19.7896 20.8125 19.6707 20.8125C19.5518 20.8125 19.4354 20.8469 19.3356 20.9115C19.2358 20.9762 19.1568 21.0683 19.1082 21.1768L18.6254 22.3065L17.3973 22.419C17.279 22.4324 17.1671 22.4796 17.0749 22.5549C16.9827 22.6303 16.9143 22.7306 16.8777 22.8439C16.8411 22.9571 16.8379 23.0786 16.8685 23.1936C16.8991 23.3086 16.9623 23.4124 17.0504 23.4925L17.9785 24.2987L17.7019 25.4987C17.6768 25.616 17.6859 25.7381 17.7283 25.8503C17.7707 25.9625 17.8446 26.0602 17.941 26.1315C18.0383 26.2022 18.1542 26.2425 18.2743 26.2475C18.3943 26.2525 18.5132 26.2219 18.616 26.1597L19.6707 25.5315L20.7301 26.1643C20.8334 26.2247 20.9522 26.2536 21.0717 26.2475C21.1912 26.2413 21.3064 26.2004 21.403 26.1297C21.4996 26.059 21.5734 25.9616 21.6154 25.8495C21.6574 25.7374 21.6658 25.6155 21.6394 25.4987L21.3676 24.2987L22.291 23.4925C22.3801 23.4129 22.4442 23.3091 22.4755 23.1938C22.5067 23.0784 22.5038 22.9565 22.467 22.8428C22.4303 22.7291 22.3613 22.6285 22.2685 22.5533C22.1757 22.4781 22.063 22.4314 21.9441 22.419Z" fill="white"/>
<path d="M15.9549 20.4922L14.3518 20.3469L13.719 18.8703C13.6693 18.7535 13.5864 18.6539 13.4805 18.5839C13.3747 18.5139 13.2506 18.4766 13.1237 18.4766C12.9968 18.4766 12.8727 18.5139 12.7668 18.5839C12.6609 18.6539 12.578 18.7535 12.5284 18.8703L11.8955 20.3469L10.2924 20.4922C10.1659 20.5036 10.0455 20.552 9.94626 20.6313C9.84702 20.7107 9.77332 20.8175 9.73434 20.9384C9.69537 21.0593 9.69283 21.1891 9.72705 21.3114C9.76127 21.4338 9.83074 21.5434 9.9268 21.6266L11.1362 22.6859L10.7799 24.2516C10.7504 24.3753 10.7583 24.5051 10.8025 24.6244C10.8467 24.7437 10.9253 24.8472 11.0284 24.9219C11.1315 24.9951 11.2535 25.0371 11.3798 25.043C11.5061 25.0488 11.6315 25.0181 11.7409 24.9547L13.1237 24.1297L14.5018 24.9547C14.6119 25.0187 14.738 25.0496 14.8652 25.0438C14.9924 25.038 15.1152 24.9956 15.219 24.9219C15.322 24.8472 15.4007 24.7437 15.4449 24.6244C15.4891 24.5051 15.4969 24.3753 15.4674 24.2516L15.1112 22.6859L16.3205 21.6266C16.4166 21.5434 16.4861 21.4338 16.5203 21.3114C16.5545 21.1891 16.552 21.0593 16.513 20.9384C16.474 20.8175 16.4003 20.7107 16.3011 20.6313C16.2019 20.552 16.0815 20.5036 15.9549 20.4922Z" fill="white"/>
<path d="M8.85605 22.4172L7.62792 22.3047L7.14511 21.175C7.09756 21.0653 7.01901 20.9717 6.91909 20.906C6.81917 20.8402 6.70223 20.805 6.58261 20.8047C6.4627 20.8037 6.34521 20.8384 6.24506 20.9043C6.14491 20.9703 6.06661 21.0645 6.02011 21.175L5.53261 22.3047L4.30917 22.4172C4.18957 22.4289 4.0759 22.4749 3.9819 22.5498C3.8879 22.6246 3.8176 22.7251 3.77948 22.8391C3.7426 22.9536 3.74027 23.0765 3.77278 23.1924C3.80529 23.3083 3.87121 23.412 3.9623 23.4906L4.88573 24.2969L4.61386 25.4969C4.58709 25.6136 4.59522 25.7357 4.63724 25.8478C4.67926 25.96 4.75332 26.0574 4.85021 26.1278C4.9471 26.1982 5.06255 26.2386 5.18221 26.2439C5.30186 26.2493 5.42045 26.2193 5.52323 26.1578L6.58261 25.5297L7.6373 26.1625C7.74054 26.2238 7.85952 26.2534 7.97944 26.2476C8.09936 26.2418 8.21494 26.201 8.31182 26.1301C8.4087 26.0591 8.48261 25.9613 8.52436 25.8488C8.56612 25.7362 8.57387 25.6138 8.54667 25.4969L8.2748 24.2969L9.20292 23.4906C9.2925 23.4109 9.35702 23.307 9.38864 23.1913C9.42026 23.0756 9.41762 22.9533 9.38105 22.8391C9.34456 22.725 9.27534 22.6242 9.18199 22.5492C9.08864 22.4742 8.97529 22.4283 8.85605 22.4172Z" fill="white"/>
</svg>
