<svg width="30" height="24" viewBox="0 0 30 24" fill="none" xmlns="http://www.w3.org/2000/svg">
<path d="M29.0487 13.0958C29.095 14.2034 28.7002 15.2842 27.9507 16.101C27.2012 16.9178 26.1583 17.404 25.0508 17.4529C24.9861 17.4559 24.9214 17.4574 24.8569 17.4574C24.5626 17.4572 24.2692 17.4253 23.9818 17.3624C23.1289 18.6793 22.0105 19.8036 20.6982 20.6635C19.3859 21.5235 17.9086 22.1 16.3607 22.3563C16.1776 22.8942 15.8123 23.3512 15.3281 23.6483C14.8438 23.9454 14.2709 24.064 13.7085 23.9835C13.1461 23.9031 12.6294 23.6287 12.2478 23.2077C11.8663 22.7867 11.6438 22.2457 11.6188 21.678C11.5939 21.1104 11.768 20.5519 12.1112 20.0991C12.4543 19.6463 12.9449 19.3276 13.4981 19.1981C14.0513 19.0686 14.6324 19.1364 15.1409 19.3899C15.6494 19.6434 16.0533 20.0666 16.2829 20.5863C18.4621 20.1832 20.4307 19.0283 21.8458 17.3227C23.2608 15.6171 24.0325 13.4691 24.0263 11.2529C24.0263 6.01729 19.7668 1.75781 14.5312 1.75781C9.29556 1.75781 5.03609 6.01729 5.03609 11.2529C5.0358 12.8719 5.44956 14.464 6.23802 15.878C6.26474 15.9246 6.2848 15.9748 6.29761 16.027C6.37377 16.2387 6.36563 16.4716 6.27487 16.6774C6.18412 16.8832 6.0177 17.0463 5.81005 17.1329C5.30161 17.3469 4.75552 17.457 4.20388 17.457C4.13896 17.457 4.0739 17.4555 4.0087 17.4524C2.90168 17.403 1.85946 16.9165 1.11057 16.0997C0.361673 15.283 -0.0327709 14.2026 0.0137245 13.0954C0.0324159 12.6539 0.0219862 12.26 0.0117909 11.8791C0.00229872 11.5204 -0.00760359 11.1495 0.00868547 10.7625C0.0572993 9.68148 0.522314 8.66119 1.30633 7.91535C2.09035 7.1695 3.13256 6.75595 4.21466 6.76131C5.95232 2.78561 9.92222 0 14.5312 0C19.1402 0 23.1102 2.78561 24.8478 6.76137C25.93 6.7552 26.9726 7.16839 27.7567 7.91426C28.5409 8.66012 29.0057 9.68069 29.0537 10.7619C29.07 11.1495 29.0602 11.5203 29.0506 11.8789C29.0405 12.2599 29.03 12.654 29.0487 13.0958ZM21.9026 11.2529C21.9022 12.3822 21.6424 13.4964 21.1432 14.5094C20.6441 15.5224 19.919 16.4072 19.0238 17.0957C18.1286 17.7841 17.0873 18.2578 15.98 18.4801C14.8728 18.7024 13.7294 18.6674 12.6378 18.3779L9.65415 20.101C9.50361 20.1879 9.33066 20.2283 9.15719 20.2169C8.98372 20.2056 8.81751 20.143 8.67958 20.0372C8.54166 19.9314 8.43822 19.787 8.38235 19.6224C8.32647 19.4578 8.32067 19.2803 8.36568 19.1123L9.12822 16.2677C7.86541 14.9028 7.16277 13.1124 7.16011 11.2529C7.16011 7.18723 10.4666 3.87984 14.5312 3.87984C18.5958 3.87984 21.9026 7.18723 21.9026 11.2529ZM12.4819 11.2529C12.4819 11.0198 12.3893 10.7963 12.2245 10.6314C12.0596 10.4666 11.8361 10.374 11.603 10.374H11.6015C11.4278 10.3743 11.258 10.4262 11.1137 10.5229C10.9694 10.6197 10.857 10.7571 10.7907 10.9177C10.7244 11.0783 10.7072 11.255 10.7413 11.4254C10.7754 11.5958 10.8593 11.7522 10.9823 11.875C11.1052 11.9977 11.2618 12.0813 11.4323 12.1151C11.6027 12.1488 11.7794 12.1313 11.9399 12.0648C12.1004 11.9982 12.2376 11.8856 12.3341 11.7411C12.4306 11.5966 12.4821 11.4267 12.4821 11.2529H12.4819ZM15.4103 11.2529C15.4102 11.2242 15.4087 11.1954 15.4056 11.1668C15.4028 11.1381 15.3985 11.1095 15.3928 11.0812C15.3875 11.0531 15.3804 11.0253 15.3716 10.998C15.3635 10.9705 15.3535 10.9436 15.343 10.9166C15.3324 10.8896 15.3195 10.8645 15.306 10.8393C15.2927 10.8139 15.278 10.7893 15.2621 10.7654C15.2461 10.7413 15.2289 10.7181 15.2105 10.6957C15.1924 10.6733 15.1731 10.652 15.1525 10.6318C15.1326 10.6113 15.1109 10.592 15.0887 10.5732C15.0663 10.5557 15.0429 10.5381 15.0189 10.5223C14.9951 10.5064 14.9704 10.4917 14.9451 10.4783C14.9199 10.4648 14.8935 10.4525 14.8671 10.4414C14.8407 10.4304 14.8138 10.4208 14.7863 10.4127C14.7315 10.3951 14.6749 10.3837 14.6176 10.3787C14.5315 10.3704 14.4447 10.3746 14.3598 10.391C14.3315 10.3968 14.3035 10.404 14.276 10.4127C14.2486 10.4208 14.2216 10.4303 14.1952 10.4414C14.1688 10.4525 14.1424 10.4648 14.1172 10.4783C14.092 10.4918 14.0674 10.5064 14.0434 10.5223C14.0193 10.5381 13.9959 10.5557 13.9743 10.5732C13.9514 10.592 13.9303 10.6113 13.9098 10.6318C13.8893 10.652 13.8699 10.6733 13.8518 10.6957C13.8336 10.7181 13.8166 10.7413 13.8008 10.7654C13.7847 10.7893 13.7699 10.8139 13.7563 10.8393C13.7428 10.8644 13.7306 10.8902 13.7199 10.9166C13.7088 10.9432 13.699 10.9704 13.6906 10.998C13.6825 11.025 13.6754 11.0531 13.6696 11.0812C13.6638 11.1095 13.6595 11.1381 13.6566 11.1668C13.6538 11.1955 13.6525 11.2242 13.6525 11.2529C13.6525 11.2816 13.6538 11.3109 13.6566 11.3396C13.6595 11.3682 13.6638 11.3965 13.6696 11.4246C13.6754 11.4527 13.6825 11.4809 13.6906 11.5084C13.699 11.5358 13.7088 11.5628 13.7199 11.5893C13.7306 11.6159 13.7428 11.6419 13.7563 11.6672C13.7697 11.6924 13.785 11.717 13.8008 11.741C13.8166 11.7649 13.8336 11.788 13.8518 11.8102C13.87 11.8326 13.8894 11.8541 13.9098 11.8746C13.9303 11.8945 13.9514 11.9145 13.9743 11.9326C13.9963 11.9509 14.0194 11.9679 14.0434 11.9836C14.0674 11.9994 14.092 12.0146 14.1172 12.0281C14.1681 12.0547 14.2213 12.0766 14.276 12.0938C14.3035 12.102 14.3316 12.109 14.3598 12.1148C14.4162 12.1264 14.4738 12.1321 14.5314 12.1318C14.7643 12.1312 14.9874 12.0388 15.1525 11.8746C15.193 11.8335 15.2297 11.7888 15.2621 11.741C15.2779 11.717 15.2926 11.6924 15.306 11.6672C15.3195 11.642 15.3318 11.6156 15.343 11.5893C15.3541 11.5629 15.3635 11.5354 15.3716 11.5084C15.3804 11.4809 15.3874 11.4529 15.3928 11.4246C15.3985 11.3965 15.4028 11.3682 15.4056 11.3396C15.4086 11.3108 15.4101 11.2818 15.4101 11.2528L15.4103 11.2529ZM18.34 11.2529C18.34 11.0198 18.2474 10.7963 18.0825 10.6314C17.9177 10.4666 17.6942 10.374 17.4611 10.374H17.4594C17.2856 10.3744 17.1159 10.4262 16.9715 10.523C16.8272 10.6198 16.7148 10.7571 16.6486 10.9178C16.5823 11.0784 16.5652 11.2551 16.5993 11.4254C16.6334 11.5958 16.7172 11.7523 16.8402 11.875C16.9632 11.9978 17.1198 12.0813 17.2902 12.1151C17.4607 12.1488 17.6373 12.1313 17.7978 12.0648C17.9583 11.9982 18.0955 11.8855 18.192 11.741C18.2885 11.5965 18.34 11.4267 18.34 11.2529Z" fill="white"/>
</svg>
