<svg width="20" height="26" viewBox="0 0 20 26" fill="none" xmlns="http://www.w3.org/2000/svg">
<path d="M19.8047 26V0H6.09375V6.09375H0V24.9336L6.09375 18.8246C5.14922 17.6515 4.57031 16.1891 4.57031 14.5742C4.57031 10.796 7.64771 7.71875 11.4258 7.71875C15.2039 7.71875 18.2812 10.796 18.2812 14.5742C18.2812 18.3523 15.2039 21.4297 11.4258 21.4297C9.81094 21.4297 8.34839 20.8508 7.17544 19.9062L1.06641 26H19.8047ZM9.14062 6.09375H7.61719V4.57031H9.14062V6.09375ZM9.14062 3.04688H7.61719V1.52344H9.14062V3.04688ZM16.7578 6.09375H10.6641V4.57031H16.7578V6.09375ZM16.7578 3.04688H10.6641V1.52344H16.7578V3.04688Z" fill="white"/>
</svg>
