<svg width="26" height="30" viewBox="0 0 26 30" fill="none" xmlns="http://www.w3.org/2000/svg">
<path d="M6.73828 22.1028V24.2114L3.81486 25.8355C3.41232 25.51 2.90057 25.3145 2.34375 25.3145C1.05141 25.3145 0 26.3659 0 27.6582C0 28.9505 1.05141 30.002 2.34375 30.002C3.63609 30.002 4.6875 28.9505 4.6875 27.6582C4.6875 27.5611 4.68088 27.4656 4.66934 27.3716L8.04398 25.4968C8.32307 25.3418 8.49609 25.0477 8.49609 24.7285V21.4766L8.07785 21.7275C7.67291 21.9705 7.21008 22.0998 6.73828 22.1028Z" fill="white"/>
<path d="M13.7695 25.4841V24.0234H12.0117V25.4841C11.1537 25.8326 10.5469 26.6746 10.5469 27.6562C10.5469 28.9486 11.5983 30 12.8906 30C14.183 30 15.2344 28.9486 15.2344 27.6562C15.2344 26.6746 14.6276 25.8326 13.7695 25.4841Z" fill="white"/>
<path d="M23.4375 25.3145C22.8807 25.3145 22.3689 25.51 21.9664 25.8355L19.043 24.2114V22.1028C18.5712 22.0997 18.1083 21.9705 17.7035 21.7275L17.2852 21.4766V24.7285C17.2852 25.0477 17.4582 25.3418 17.7373 25.4968L21.1119 27.3716C21.1004 27.4656 21.0938 27.5611 21.0938 27.6582C21.0938 28.9505 22.1452 30.002 23.4375 30.002C24.7298 30.002 25.7812 28.9505 25.7812 27.6582C25.7812 26.3659 24.7298 25.3145 23.4375 25.3145Z" fill="white"/>
<path d="M19.6815 20.0861L21.8439 17.9237C22.1291 17.6385 22.1836 17.1958 21.9761 16.85L21.173 15.5113C21.445 14.9968 21.6688 14.4551 21.8415 13.8936L23.3577 13.5145C23.7489 13.4167 24.0234 13.0652 24.0234 12.6619V9.60375C24.0234 9.20045 23.7489 8.84889 23.3577 8.75109L21.8415 8.37205C21.6688 7.81055 21.4449 7.26873 21.1729 6.75428L21.9761 5.41559C22.1836 5.06977 22.1291 4.62709 21.8439 4.34191L19.6816 2.17951C19.3964 1.89434 18.9537 1.83984 18.6079 2.04732L17.2692 2.85053C16.7547 2.57848 16.2129 2.35459 15.6514 2.18191L15.2724 0.665742C15.1746 0.274453 14.823 0 14.4197 0H11.3616C10.9583 0 10.6067 0.274453 10.5089 0.665742L10.1299 2.18191C9.56848 2.35453 9.0266 2.57854 8.51221 2.85053L7.1734 2.04732C6.82758 1.83984 6.3849 1.89434 6.09978 2.17951L3.93738 4.34191C3.65221 4.62709 3.59771 5.06977 3.8052 5.41559L4.6084 6.75428C4.33635 7.26873 4.11246 7.81055 3.93979 8.37205L2.42361 8.75109C2.03227 8.84889 1.75781 9.20045 1.75781 9.60375V12.6619C1.75781 13.0652 2.03227 13.4167 2.42355 13.5145L3.93973 13.8936C4.1124 14.4551 4.33635 14.9969 4.60828 15.5113L3.80514 16.85C3.59766 17.1958 3.65215 17.6385 3.93732 17.9237L6.09973 20.0861C6.3849 20.3713 6.82758 20.4258 7.1734 20.2183L8.51209 19.4151C9.0266 19.6871 9.56842 19.9111 10.1298 20.0838L10.5088 21.5999C10.6066 21.9912 10.9582 22.2657 11.3615 22.2657H14.4196C14.8229 22.2657 15.1745 21.9912 15.2723 21.5999L15.6513 20.0838C16.2127 19.9112 16.7545 19.6871 17.269 19.4151L18.6077 20.2183C18.9537 20.4258 19.3963 20.3713 19.6815 20.0861ZM12.8906 15.2344C10.6254 15.2344 8.78906 13.398 8.78906 11.1328C8.78906 8.86758 10.6254 7.03125 12.8906 7.03125C15.1559 7.03125 16.9922 8.86758 16.9922 11.1328C16.9922 13.398 15.1559 15.2344 12.8906 15.2344Z" fill="white"/>
</svg>
