<svg width="25" height="25" viewBox="0 0 25 25" fill="none" xmlns="http://www.w3.org/2000/svg">
<path d="M9.78244 10.8696C12.784 10.8696 15.2172 8.43633 15.2172 5.43478C15.2172 2.43324 12.784 0 9.78244 0C6.78089 0 4.34766 2.43324 4.34766 5.43478C4.34766 8.43633 6.78089 10.8696 9.78244 10.8696Z" fill="white"/>
<path d="M12.537 22.6121C11.9707 21.6317 12.0837 20.424 12.7576 19.5686C12.0837 18.7132 11.9707 17.5067 12.537 16.5251L13.4163 15.0034C13.9 14.1654 14.8022 13.6447 15.7707 13.6447C15.9033 13.6447 16.0337 13.6545 16.163 13.673C16.1989 13.5838 16.2446 13.5001 16.2891 13.4154C15.7022 13.1838 15.0685 13.0469 14.4022 13.0469H5.16304C2.3163 13.0469 0 15.3632 0 18.2099V22.0143C0 22.4643 0.365217 22.8295 0.815218 22.8295H12.662L12.537 22.6121Z" fill="white"/>
<path d="M23.5912 20.0774C23.6129 19.9089 23.6423 19.7415 23.6423 19.5676C23.6423 19.3926 23.6118 19.2263 23.5912 19.0578L24.5705 18.3165C24.789 18.1513 24.8499 17.8491 24.7129 17.6111L23.8336 16.0893C23.6966 15.8524 23.4042 15.7535 23.1521 15.86L22.0249 16.335C21.7499 16.1252 21.4575 15.9404 21.1347 15.8056L20.9847 14.6089C20.9499 14.3372 20.7194 14.1328 20.4455 14.1328H18.6879C18.414 14.1328 18.1825 14.3372 18.1488 14.6089L17.9988 15.8056C17.676 15.9404 17.3825 16.1263 17.1086 16.335L15.9814 15.86C15.7292 15.7535 15.4368 15.8513 15.2999 16.0893L14.4205 17.6111C14.2836 17.848 14.3444 18.1502 14.5629 18.3165L15.5423 19.0578C15.5205 19.2263 15.4912 19.3937 15.4912 19.5676C15.4912 19.7426 15.5216 19.9089 15.5423 20.0774L14.5629 20.8187C14.3444 20.9839 14.2836 21.2861 14.4205 21.5241L15.2999 23.0469C15.4368 23.2839 15.7292 23.3828 15.9814 23.2763L17.1086 22.8002C17.3836 23.01 17.676 23.1948 17.9988 23.3296L18.1488 24.5263C18.1825 24.798 18.4129 25.0024 18.6868 25.0024H20.4444C20.7184 25.0024 20.9499 24.798 20.9836 24.5263L21.1336 23.3296C21.4564 23.1948 21.7499 23.0089 22.0238 22.8002L23.151 23.2752C23.4031 23.3817 23.6955 23.2839 23.8325 23.0459L24.7118 21.523C24.8488 21.2861 24.7879 20.9839 24.5694 20.8176L23.5912 20.0774ZM19.5662 21.7415C18.3651 21.7415 17.3923 20.7687 17.3923 19.5676C17.3923 18.3665 18.3651 17.3937 19.5662 17.3937C20.7673 17.3937 21.7401 18.3665 21.7401 19.5676C21.7401 20.7687 20.7673 21.7415 19.5662 21.7415Z" fill="white"/>
</svg>
