<svg width="22" height="25" viewBox="0 0 22 25" fill="none" xmlns="http://www.w3.org/2000/svg">
<path d="M2.91126 4.61056C2.91126 4.03552 3.41504 3.56508 4.04333 3.56508H17.4414C18.0697 3.56508 18.5735 4.03552 18.5735 4.61056V6.64401H19.8924V2.76004C19.8924 2.44641 19.615 2.19027 19.2754 2.19027H9.40936C8.73577 2.19027 8.13011 1.84525 7.82446 1.29638L7.28672 0.324095C7.1735 0.125452 6.95277 0 6.70938 0H2.232C1.88673 0 1.60938 0.256137 1.60938 0.569767V6.64401H2.91126V4.61056Z" fill="white"/>
<path d="M4.04297 4.60938H17.4411V6.64283H4.04297V4.60938Z" fill="white"/>
<path d="M20.8377 7.6875H0.647184C0.267292 7.6875 -0.0537985 7.99823 0.00755905 8.37229L1.47361 17.5306C1.51887 17.8286 1.79059 18.0481 2.1132 18.0481H4.01512V14.0074C4.01512 13.1658 4.73396 12.4758 5.6566 12.4444C7.40001 12.366 8.73018 12.0001 9.69812 11.3205C10.0151 11.1062 10.3717 10.9964 10.7453 10.9964C11.1132 10.9964 11.4698 11.1062 11.7755 11.3101C12.7547 12.0001 14.0849 12.366 15.8453 12.4496C16.7453 12.4758 17.4642 13.1658 17.4642 14.0074V18.0481H19.3717C19.6887 18.0481 19.9661 17.8286 20.0113 17.5359L21.4774 8.37229C21.538 8.00269 21.2232 7.6875 20.8377 7.6875Z" fill="white"/>
<path d="M15.7899 13.4948C13.9617 13.4112 12.3541 13.0296 11.1031 12.1566C10.888 12.0103 10.5994 12.0103 10.3843 12.1566C9.13333 13.0296 7.52577 13.4112 5.69748 13.4948C5.39183 13.5053 5.14844 13.7353 5.14844 14.0124V18.1734C5.14844 20.0343 5.94654 21.8482 7.43522 23.108C8.7088 24.1901 10.022 24.7651 10.5258 24.9585C10.6673 25.016 10.8201 25.016 10.9616 24.9585C11.4484 24.7703 12.6767 24.2371 13.9107 23.2282C13.922 23.223 13.9277 23.2073 13.939 23.2021C15.4899 21.9423 16.3334 20.0814 16.3334 18.1681V14.0124C16.3334 13.7353 16.0956 13.5053 15.7899 13.4948ZM11.6332 18.4428C11.5169 18.5324 11.4587 18.6667 11.4781 18.8055C11.5411 19.1905 11.6623 19.9516 11.7399 20.4396C11.7787 20.6813 11.5751 20.8962 11.3085 20.8962H10.1789C9.91229 20.8962 9.7087 20.6813 9.74743 20.4351L10.0044 18.8055C10.0286 18.6712 9.97531 18.5324 9.85895 18.4473C9.54383 18.21 9.34511 17.8474 9.34511 17.4445C9.34511 16.5939 10.2419 15.9268 11.197 16.2178C11.609 16.3431 11.9386 16.652 12.0695 17.0281C12.2634 17.5877 12.0501 18.125 11.6332 18.4428Z" fill="white"/>
</svg>
