<svg width="27" height="25" viewBox="0 0 27 25" fill="none" xmlns="http://www.w3.org/2000/svg">
<path d="M14.0625 7.14357H15V8.52776C15 8.82629 15.1567 9.10503 15.4175 9.27065L20.1562 11.6079V6.07213L15 3.64844V5.35786H13.125C12.6073 5.35786 12.1875 5.7572 12.1875 6.25072V8.92929H14.0625V7.14357Z" fill="white"/>
<path d="M18.24 19.5595L17.298 18.0643C17.3988 17.8736 17.4823 17.6763 17.5539 17.4712L19.3324 17.0477C19.5411 16.998 19.6875 16.8195 19.6875 16.6146V15.526C19.6875 15.3212 19.5411 15.1426 19.3324 15.0929L17.5539 14.6694C17.4823 14.4643 17.3988 14.267 17.298 14.0763L18.24 12.5811C18.3507 12.4055 18.3216 12.1806 18.1695 12.0358L17.3613 11.266C17.2092 11.1212 16.9731 11.0935 16.7887 11.1989L15.2187 12.096C15.0185 12.0001 14.8113 11.9205 14.5959 11.8523L14.1513 10.1585C14.0991 9.95971 13.9116 9.82031 13.6965 9.82031H12.5535C12.3384 9.82031 12.1509 9.95971 12.0988 10.1585L11.6541 11.8523C11.4387 11.9205 11.2315 12 11.0313 12.096L9.46135 11.1989C9.27692 11.0935 9.04083 11.1212 8.88874 11.266L8.0805 12.0358C7.92841 12.1806 7.89934 12.4055 8.01001 12.5811L8.95197 14.0763C8.8512 14.267 8.76766 14.4643 8.69608 14.6694L6.91755 15.0929C6.70893 15.1426 6.5625 15.3212 6.5625 15.526V16.6146C6.5625 16.8195 6.70893 16.998 6.91755 17.0477L8.69608 17.4712C8.76766 17.6763 8.8512 17.8736 8.95197 18.0643L8.01001 19.5595C7.89934 19.7351 7.92841 19.96 8.0805 20.1048L8.88874 20.8746C9.04083 21.0194 9.27692 21.0471 9.46135 20.9417L11.0313 20.0446C11.2315 20.1406 11.4387 20.2202 11.6541 20.2883L12.0988 21.9822C12.1509 22.1809 12.3384 22.3203 12.5535 22.3203H13.6965C13.9116 22.3203 14.0991 22.1809 14.1513 21.9822L14.5959 20.2883C14.8113 20.2202 15.0185 20.1405 15.2187 20.0446L16.7887 20.9417C16.9731 21.0471 17.2092 21.0194 17.3613 20.8746L18.1695 20.1048C18.3216 19.96 18.3507 19.7351 18.24 19.5595ZM13.125 18.7489C11.5717 18.7489 10.3125 17.5497 10.3125 16.0703C10.3125 14.591 11.5717 13.3917 13.125 13.3917C14.6783 13.3917 15.9375 14.591 15.9375 16.0703C15.9375 17.5497 14.6783 18.7489 13.125 18.7489Z" fill="white"/>
<path d="M13.125 17.8605C14.1605 17.8605 15 17.061 15 16.0748C15 15.0886 14.1605 14.2891 13.125 14.2891C12.0895 14.2891 11.25 15.0886 11.25 16.0748C11.25 17.061 12.0895 17.8605 13.125 17.8605Z" fill="white"/>
<path d="M26.25 2.6786L21.1073 0.130871C20.8105 -0.0436238 20.4395 -0.0436238 20.1427 0.130871L15 2.6786L20.625 5.35717L26.25 2.6786Z" fill="white"/>
<path d="M21.0938 11.6079L25.8325 9.27065C26.0933 9.10503 26.25 8.82629 26.25 8.52776V3.64844L21.0938 6.07213V11.6079Z" fill="white"/>
<path d="M0.9375 12.4978H4.6875C5.20523 12.4978 5.625 12.0984 5.625 11.6049V10.7121H6.17432L7.15919 11.65L8.48419 10.3868L7.22534 9.18792C7.04956 9.02051 6.81107 8.92634 6.5625 8.92634H5.625V8.03348C5.625 7.53997 5.20523 7.14062 4.6875 7.14062H0.9375C0.419769 7.14062 0 7.53997 0 8.03348V11.6049C0 12.0984 0.419769 12.4978 0.9375 12.4978ZM2.8125 8.92634C3.33029 8.92634 3.75 9.32607 3.75 9.8192C3.75 10.3123 3.33029 10.7121 2.8125 10.7121C2.29477 10.7121 1.875 10.3123 1.875 9.8192C1.875 9.32607 2.29477 8.92634 2.8125 8.92634Z" fill="white"/>
<path d="M6.17432 21.4263H5.625V20.5335C5.625 20.04 5.20523 19.6406 4.6875 19.6406H0.9375C0.419769 19.6406 0 20.04 0 20.5335V24.1049C0 24.5984 0.419769 24.9978 0.9375 24.9978H4.6875C5.20523 24.9978 5.625 24.5984 5.625 24.1049V23.2121H6.5625C6.81107 23.2121 7.04956 23.1179 7.22534 22.9505L8.48419 21.7516L7.15919 20.4884L6.17432 21.4263ZM2.8125 23.2121C2.29477 23.2121 1.875 22.8123 1.875 22.3192C1.875 21.8261 2.29477 21.4263 2.8125 21.4263C3.33029 21.4263 3.75 21.8261 3.75 22.3192C3.75 22.8123 3.33029 23.2121 2.8125 23.2121Z" fill="white"/>
<path d="M25.3123 19.6406H21.5623C21.0446 19.6406 20.6248 20.04 20.6248 20.5335V21.4263H20.0755L19.0906 20.4884L17.7656 21.7516L19.0245 22.9505C19.2003 23.1179 19.4388 23.2121 19.6873 23.2121H20.6248V24.1049C20.6248 24.5984 21.0446 24.9978 21.5623 24.9978H25.3123C25.83 24.9978 26.2498 24.5984 26.2498 24.1049V20.5335C26.2498 20.04 25.83 19.6406 25.3123 19.6406ZM23.4373 23.2121C22.9195 23.2121 22.4998 22.8123 22.4998 22.3192C22.4998 21.8261 22.9195 21.4263 23.4373 21.4263C23.9551 21.4263 24.3748 21.8261 24.3748 22.3192C24.3748 22.8123 23.9551 23.2121 23.4373 23.2121Z" fill="white"/>
</svg>
