<svg width="24" height="24" viewBox="0 0 24 24" fill="none" xmlns="http://www.w3.org/2000/svg">
<path fill-rule="evenodd" clip-rule="evenodd" d="M9.69652 19.9774H0.88201C0.395735 19.9774 0 19.5817 0 19.0954V2.88431C0 2.39922 0.395735 2.00348 0.88201 2.00348H3.48868V2.83681H1.22549C1.00892 2.83681 0.833333 3.0124 0.833333 3.22897V18.7519C0.833333 18.9685 1.00892 19.1441 1.22549 19.1441H10.5089C10.2162 19.3994 9.94441 19.6781 9.69652 19.9774ZM11.5989 18.3598H1.61765V3.62113H3.5825C3.74534 3.97495 4.10304 4.22059 4.51809 4.22059H10.8122C11.2273 4.22059 11.585 3.97495 11.7478 3.62113H13.7126V10.8434C12.2446 11.439 11.205 12.8819 11.205 14.5594C11.205 15.8795 11.8488 17.0542 12.8385 17.7851C12.4047 17.9375 11.9899 18.1306 11.5989 18.3598ZM7.3574 7.81549H12.5361C12.7525 7.81549 12.9283 7.63976 12.9283 7.42333C12.9283 7.20691 12.7525 7.03118 12.5361 7.03118H7.3574C7.14098 7.03118 6.96525 7.20691 6.96525 7.42333C6.96525 7.63976 7.14098 7.81549 7.3574 7.81549ZM4.02544 9.74069L3.77343 10.5163C3.74176 10.6137 3.65098 10.6797 3.54858 10.6797H2.73299C2.63059 10.6797 2.5398 10.7456 2.50814 10.843C2.47647 10.9405 2.51118 11.0472 2.59402 11.1074L3.25382 11.5868C3.33672 11.647 3.37137 11.7537 3.33971 11.8511L3.0877 12.6268C3.05603 12.7242 3.09074 12.8309 3.17358 12.8911C3.25642 12.9513 3.36863 12.9513 3.45152 12.8911L4.11132 12.4117C4.19422 12.3515 4.30637 12.3515 4.38926 12.4117L5.04907 12.8911C5.13196 12.9513 5.24412 12.9513 5.32701 12.8911C5.40985 12.8309 5.44456 12.7242 5.41289 12.6268L5.16088 11.8511C5.12922 11.7537 5.16387 11.647 5.24676 11.5868L5.90657 11.1074C5.98941 11.0472 6.02412 10.9405 5.99245 10.843C5.96078 10.7456 5.87 10.6797 5.7676 10.6797H4.95201C4.84961 10.6797 4.75882 10.6137 4.72716 10.5163L4.47515 9.74069C4.44348 9.64328 4.3527 9.5773 4.25029 9.5773C4.14789 9.5773 4.05711 9.64328 4.02544 9.74069ZM4.02544 14.2553L3.77343 15.031C3.74176 15.1284 3.65098 15.1944 3.54858 15.1944H2.73299C2.63059 15.1944 2.5398 15.2603 2.50814 15.3577C2.47647 15.4551 2.51118 15.5619 2.59402 15.6221L3.25382 16.1014C3.33672 16.1616 3.37137 16.2683 3.33971 16.3657L3.0877 17.1414C3.05603 17.2388 3.09074 17.3455 3.17358 17.4057C3.25642 17.4659 3.36863 17.4659 3.45152 17.4057L4.11132 16.9264C4.19422 16.8662 4.30637 16.8662 4.38926 16.9264L5.04907 17.4057C5.13196 17.4659 5.24412 17.4659 5.32701 17.4057C5.40985 17.3455 5.44456 17.2388 5.41289 17.1414L5.16088 16.3657C5.12922 16.2683 5.16387 16.1616 5.24676 16.1014L5.90657 15.6221C5.98941 15.5619 6.02412 15.4551 5.99245 15.3577C5.96078 15.2603 5.87 15.1944 5.7676 15.1944H4.95201C4.84961 15.1944 4.75882 15.1284 4.72716 15.031L4.47515 14.2553C4.44348 14.1579 4.3527 14.092 4.25029 14.092C4.14789 14.092 4.05711 14.1579 4.02544 14.2553ZM7.3574 15.4824H9.94676C10.1632 15.4824 10.3389 15.3067 10.3389 15.0902C10.3389 14.8738 10.1632 14.6981 9.94676 14.6981H7.3574C7.14098 14.6981 6.96525 14.8738 6.96525 15.0902C6.96525 15.3067 7.14098 15.4824 7.3574 15.4824ZM7.3574 12.3301H11.0225C11.2389 12.3301 11.4146 12.1544 11.4146 11.938C11.4146 11.7215 11.2389 11.5458 11.0225 11.5458H7.3574C7.14098 11.5458 6.96525 11.7215 6.96525 11.938C6.96525 12.1544 7.14098 12.3301 7.3574 12.3301ZM7.3574 6.45309H10.3893C10.6057 6.45309 10.7815 6.27735 10.7815 6.06093C10.7815 5.84446 10.6057 5.66877 10.3893 5.66877H7.3574C7.14098 5.66877 6.96525 5.84446 6.96525 6.06093C6.96525 6.27735 7.14098 6.45309 7.3574 6.45309ZM4.02544 5.22603L3.77343 6.00167C3.74176 6.09907 3.65098 6.16505 3.54858 6.16505H2.73299C2.63059 6.16505 2.5398 6.23098 2.50814 6.32838C2.47647 6.42583 2.51118 6.53255 2.59402 6.59275L3.25382 7.07211C3.33672 7.1323 3.37137 7.23902 3.33971 7.33647L3.0877 8.11211C3.05603 8.20951 3.09074 8.31623 3.17358 8.37642C3.25642 8.43662 3.36863 8.43662 3.45152 8.37642L4.11132 7.89706C4.19422 7.83686 4.30637 7.83686 4.38926 7.89706L5.04907 8.37642C5.13196 8.43662 5.24412 8.43662 5.32701 8.37642C5.40985 8.31623 5.44456 8.20951 5.41289 8.11211L5.16088 7.33647C5.12922 7.23902 5.16387 7.1323 5.24676 7.07211L5.90657 6.59275C5.98941 6.53255 6.02412 6.42583 5.99245 6.32838C5.96078 6.23098 5.87 6.16505 5.7676 6.16505H4.95201C4.84961 6.16505 4.75882 6.09907 4.72716 6.00167L4.47515 5.22603C4.44348 5.12863 4.3527 5.06265 4.25029 5.06265C4.14789 5.06265 4.05711 5.12863 4.02544 5.22603ZM7.3574 10.9677H9.89912C10.1155 10.9677 10.2913 10.792 10.2913 10.5756C10.2913 10.3591 10.1155 10.1834 9.89912 10.1834H7.3574C7.14098 10.1834 6.96525 10.3591 6.96525 10.5756C6.96525 10.792 7.14098 10.9677 7.3574 10.9677ZM7.3574 16.8448H10.6353C10.8518 16.8448 11.0275 16.6691 11.0275 16.4526C11.0275 16.2362 10.8518 16.0605 10.6353 16.0605H7.3574C7.14098 16.0605 6.96525 16.2362 6.96525 16.4526C6.96525 16.6691 7.14098 16.8448 7.3574 16.8448ZM14.497 10.6159V3.22897C14.497 3.0124 14.3214 2.83681 14.1048 2.83681H11.8416V2.00348H14.4495C14.9346 2.00348 15.3303 2.39922 15.3303 2.88431V10.5537C15.2906 10.5525 15.2507 10.552 15.2107 10.552C14.9672 10.552 14.7287 10.5739 14.497 10.6159ZM4.27299 1.39054C4.27299 1.2552 4.38275 1.14544 4.51809 1.14544H6.20985C6.3677 0.488578 6.95956 0 7.66515 0C8.37074 0 8.9626 0.488578 9.12157 1.14544H10.8122C10.8772 1.14544 10.9396 1.17127 10.9855 1.21721C11.0315 1.26319 11.0573 1.32554 11.0573 1.39054V3.19118C11.0573 3.32657 10.9476 3.43627 10.8122 3.43627H4.51809C4.38275 3.43627 4.27299 3.32657 4.27299 3.19118V1.39054ZM7.6651 1.65828C7.90176 1.65828 8.09564 1.46446 8.09564 1.22779C8.09564 0.991127 7.90176 0.798529 7.6651 0.798529C7.42843 0.798529 7.23583 0.991127 7.23583 1.22779C7.23583 1.46446 7.42843 1.65828 7.6651 1.65828ZM9.15162 23.8548C9.08049 23.8548 9.01289 23.8239 8.96632 23.7701C8.91975 23.7164 8.89887 23.6451 8.90902 23.5747C9.37632 20.513 12.0197 18.1668 15.2107 18.1668C18.4035 18.1668 21.0469 20.513 21.5119 23.5749C21.522 23.6451 21.5011 23.7162 21.4547 23.7698C21.4083 23.8233 21.3409 23.8541 21.27 23.8541C19.5916 23.8548 10.8304 23.8548 9.15162 23.8548ZM15.2107 17.7825C13.436 17.7825 11.9893 16.3341 11.9893 14.5594C11.9893 12.7846 13.436 11.3363 15.2107 11.3363C16.9872 11.3363 18.4338 12.7846 18.4338 14.5594C18.4338 16.3341 16.9872 17.7825 15.2107 17.7825ZM23.5294 9.55696C23.5294 9.94956 23.2091 10.2688 22.8165 10.2688H19.5958L18.623 11.2815C18.5537 11.3536 18.4475 11.3764 18.3547 11.3391C18.2619 11.3017 18.2011 11.2117 18.2011 11.1117V10.2688H17.5982C17.2056 10.2688 16.8852 9.94956 16.8852 9.55696V5.98573C16.8852 5.59314 17.2056 5.27279 17.5982 5.27279H22.8165C23.2091 5.27279 23.5294 5.59314 23.5294 5.98573V9.55696ZM18.2745 8.17588H22.0776C22.2941 8.17588 22.4698 8.0002 22.4698 7.78373C22.4698 7.5673 22.2941 7.39157 22.0776 7.39157H18.2745C18.058 7.39157 17.8823 7.5673 17.8823 7.78373C17.8823 8.0002 18.058 8.17588 18.2745 8.17588ZM18.2745 9.30628H22.0776C22.2941 9.30628 22.4698 9.13054 22.4698 8.91412C22.4698 8.6977 22.2941 8.52196 22.0776 8.52196H18.2745C18.058 8.52196 17.8823 8.6977 17.8823 8.91412C17.8823 9.13054 18.058 9.30628 18.2745 9.30628ZM18.2745 7.04446H22.0776C22.2941 7.04446 22.4698 6.86873 22.4698 6.6523C22.4698 6.43588 22.2941 6.26015 22.0776 6.26015H18.2745C18.058 6.26015 17.8823 6.43588 17.8823 6.6523C17.8823 6.86873 18.058 7.04446 18.2745 7.04446Z" fill="white"/>
</svg>
