<svg width="23" height="25" viewBox="0 0 23 25" fill="none" xmlns="http://www.w3.org/2000/svg">
<path fill-rule="evenodd" clip-rule="evenodd" d="M2.86358 10.7685L4.19306 11.1986C4.40303 11.2666 4.55462 11.4134 4.63116 11.6203C4.69788 11.8009 4.77146 11.978 4.85241 12.1516C4.94562 12.3513 4.94121 12.5621 4.84113 12.7593L4.20582 14.002C4.06698 14.275 4.11702 14.593 4.33386 14.8093L5.76882 16.2404C5.98713 16.4581 6.30552 16.508 6.57976 16.3695L7.82585 15.7359C8.02355 15.6361 8.2345 15.6317 8.43613 15.7247C8.60833 15.8049 8.78641 15.8788 8.96744 15.9439C9.17446 16.0217 9.32066 16.1728 9.38885 16.3822L9.82155 17.7081C9.91623 18.0007 10.1777 18.1896 10.4848 18.1896H12.5153C12.8225 18.1896 13.0839 18.0007 13.1786 17.7081L13.6113 16.3822C13.6795 16.1728 13.8257 16.0217 14.0327 15.9453C14.2138 15.8788 14.3913 15.8054 14.5655 15.7247C14.7657 15.6317 14.9771 15.6361 15.1748 15.7359L16.4209 16.3695C16.6946 16.508 17.0135 16.4581 17.2318 16.2404L18.6668 14.8093C18.8836 14.593 18.9337 14.2755 18.7948 14.002L18.1605 12.7593C18.059 12.5621 18.055 12.3518 18.1478 12.1516C18.2282 11.9785 18.3023 11.8009 18.369 11.6203C18.4455 11.4139 18.5986 11.2666 18.8086 11.1986L20.1381 10.7685C20.43 10.6726 20.6193 10.4133 20.6193 10.107V8.08202C20.6193 7.77574 20.4304 7.51497 20.1381 7.42054L18.8086 6.98902C18.5986 6.92101 18.4455 6.77522 18.369 6.56875C18.3023 6.38821 18.2287 6.2111 18.1478 6.03742C18.056 5.83633 18.059 5.62546 18.1605 5.42976L18.7948 4.18705C18.9337 3.91405 18.8836 3.59505 18.6668 3.37831L17.2318 1.94724C17.0135 1.73099 16.6951 1.67962 16.4209 1.81954L15.1748 2.45215C14.9771 2.55343 14.7662 2.55734 14.5655 2.46487C14.3918 2.38463 14.2138 2.31076 14.0327 2.24422C13.8257 2.16789 13.6795 2.01671 13.6113 1.80584L13.1786 0.47996C13.0839 0.188853 12.8225 0 12.5153 0H10.4843C10.1772 0 9.91574 0.188853 9.82106 0.47996L9.38836 1.80584C9.32017 2.01671 9.17397 2.16789 8.96695 2.24422C8.78592 2.31076 8.60833 2.38414 8.43417 2.46487C8.23401 2.55636 8.02257 2.55343 7.82486 2.45215L6.57878 1.81954C6.30503 1.67962 5.98615 1.73099 5.76784 1.94724L4.33288 3.37831C4.11604 3.59456 4.066 3.91356 4.20484 4.18705L4.84015 5.42976C4.94022 5.62546 4.94464 5.83731 4.85143 6.03742C4.77097 6.21061 4.69689 6.38821 4.63017 6.56875C4.55364 6.77522 4.40205 6.92101 4.19208 6.98902L2.8626 7.42054C2.56923 7.51497 2.37986 7.77574 2.37986 8.08202V10.107C2.38133 10.4133 2.57021 10.6726 2.86358 10.7685ZM11.4998 3.8754C14.3894 3.8754 16.7329 6.21208 16.7329 9.09429C16.7329 11.976 14.3899 14.3117 11.4998 14.3117C8.61029 14.3117 6.26824 11.976 6.26824 9.09429C6.26824 6.21257 8.6098 3.8754 11.4998 3.8754ZM22.9697 23.3082C23.0144 23.3943 23.0099 23.4897 22.9545 23.5689C22.3648 24.433 21.3694 25 20.2416 25C18.9871 25 17.8971 24.2984 17.3437 23.2666H5.65599C5.10408 24.2984 4.01351 25 2.7581 25C1.63025 25 0.635832 24.433 0.0451674 23.5689C-0.00928757 23.4897 -0.014684 23.3943 0.0299593 23.3082C0.0760743 23.2235 0.158002 23.1736 0.253666 23.1736H2.62172C2.71493 23.1736 2.79441 23.1276 2.84003 23.0474L3.53274 21.8531C3.57885 21.7729 3.57885 21.6809 3.53274 21.6006L2.84003 20.4069C2.79392 20.3266 2.71493 20.2806 2.62172 20.2806H0.253666C0.157511 20.2806 0.0755837 20.2307 0.0299593 20.1461C-0.014684 20.06 -0.00879699 19.9646 0.0451674 19.8853C0.636322 19.0213 1.63025 18.4528 2.7581 18.4528C4.014 18.4528 5.10408 19.1558 5.65599 20.1877H17.3427C17.8961 19.1558 18.9867 18.4528 20.2406 18.4528C21.3684 18.4528 22.3643 19.0213 22.9535 19.8853C23.009 19.9646 23.0134 20.06 22.9687 20.1461C22.9241 20.2307 22.8407 20.2806 22.745 20.2806H20.378C20.2847 20.2806 20.2043 20.3266 20.1582 20.4069L19.4669 21.6011C19.4198 21.6814 19.4198 21.7729 19.4669 21.8536L20.1582 23.0479C20.2043 23.1281 20.2847 23.1741 20.378 23.1741H22.745C22.8417 23.1736 22.9251 23.2235 22.9697 23.3082ZM10.6918 6.25416C10.6791 6.02959 10.7532 5.82997 10.9087 5.66607C11.2231 5.33582 11.7765 5.33582 12.0905 5.66607C12.246 5.82948 12.3201 6.02959 12.3073 6.25416L12.1253 9.57963C12.0836 10.3409 10.9156 10.3409 10.8739 9.57963L10.6918 6.25416ZM12.2853 11.9873C12.2853 12.4188 11.932 12.7696 11.4993 12.7696C11.0667 12.7696 10.7134 12.4188 10.7134 11.9873C10.7134 11.5557 11.0667 11.2035 11.4993 11.2035C11.932 11.204 12.2853 11.5562 12.2853 11.9873Z" fill="white"/>
</svg>
