<svg width="50" height="50" viewBox="0 0 50 50" fill="none" xmlns="http://www.w3.org/2000/svg">
<path d="M46.8111 20.0154L42.9728 19.5274C42.6563 18.5535 42.2664 17.6144 41.8111 16.7221L44.1815 13.6699C45.141 12.4346 45.0288 10.6911 43.9324 9.6294L40.7168 6.41377C39.6449 5.30719 37.9013 5.19694 36.664 6.15448L33.6158 8.52485C32.7236 8.06956 31.7845 7.6796 30.8085 7.36315L30.3206 3.53094C30.1368 1.99356 28.8322 0.835938 27.2867 0.835938H22.7133C21.1678 0.835938 19.8632 1.99356 19.6794 3.52481L19.1915 7.36315C18.2155 7.6796 17.2764 8.06752 16.3842 8.52485L13.3339 6.15448C12.1007 5.19694 10.3572 5.30719 9.29346 6.40356L6.07783 9.61715C4.97125 10.6911 4.85896 12.4346 5.81854 13.6719L8.18892 16.7221C7.73158 17.6144 7.34367 18.5535 7.02721 19.5274L3.195 20.0154C1.65763 20.1991 0.5 21.5037 0.5 23.0493V27.6226C0.5 29.1681 1.65763 30.4728 3.18888 30.6565L7.02721 31.1445C7.34367 32.1184 7.73363 33.0575 8.18892 33.9497L5.81854 37.002C4.85896 38.2372 4.97125 39.9808 6.06763 41.0425L9.28325 44.2581C10.3572 45.3626 12.0987 45.4729 13.336 44.5154L16.3862 42.145C17.2784 42.6023 18.2176 42.9923 19.1915 43.3067L19.6794 47.1369C19.8632 48.6783 21.1678 49.8359 22.7133 49.8359H27.2867C28.8322 49.8359 30.1368 48.6783 30.3206 47.1471L30.8085 43.3087C31.7824 42.9923 32.7216 42.6023 33.6138 42.147L36.6661 44.5174C37.9013 45.477 39.6449 45.3647 40.7065 44.2683L43.9222 41.0527C45.0288 39.9788 45.141 38.2372 44.1815 37L41.8111 33.9497C42.2684 33.0575 42.6584 32.1184 42.9728 31.1445L46.803 30.6565C48.3403 30.4728 49.498 29.1681 49.498 27.6226V23.0493C49.5 21.5037 48.3424 20.1991 46.8111 20.0154ZM25 35.5443C19.3711 35.5443 14.7917 30.9648 14.7917 25.3359C14.7917 19.7071 19.3711 15.1276 25 15.1276C30.6289 15.1276 35.2083 19.7071 35.2083 25.3359C35.2083 30.9648 30.6289 35.5443 25 35.5443Z" fill="white"/>
</svg>
